<svg fill="none" height="216" viewBox="0 0 693 216" width="693" xmlns="http://www.w3.org/2000/svg" xmlns:xlink="http://www.w3.org/1999/xlink"><filter id="a" color-interpolation-filters="sRGB" filterUnits="userSpaceOnUse" height="215.049" width="229.67" x=".868687" y=".934832"><feFlood flood-opacity="0" result="BackgroundImageFix"/><feColorMatrix in="SourceAlpha" type="matrix" values="0 0 0 0 0 0 0 0 0 0 0 0 0 0 0 0 0 0 127 0"/><feOffset dy="1.06566"/><feGaussianBlur stdDeviation="1.06566"/><feColorMatrix type="matrix" values="0 0 0 0 0 0 0 0 0 0 0 0 0 0 0 0 0 0 0.0796547 0"/><feBlend in2="BackgroundImageFix" mode="normal" result="effect1_dropShadow"/><feBlend in="SourceGraphic" in2="effect1_dropShadow" mode="normal" result="shape"/></filter><filter id="b" color-interpolation-filters="sRGB" filterUnits="userSpaceOnUse" height="164.964" width="229.67" x="232.031" y="2.85304"><feFlood flood-opacity="0" result="BackgroundImageFix"/><feColorMatrix in="SourceAlpha" type="matrix" values="0 0 0 0 0 0 0 0 0 0 0 0 0 0 0 0 0 0 127 0"/><feOffset dy="1.06566"/><feGaussianBlur stdDeviation="1.06566"/><feColorMatrix type="matrix" values="0 0 0 0 0 0 0 0 0 0 0 0 0 0 0 0 0 0 0.0796547 0"/><feBlend in2="BackgroundImageFix" mode="normal" result="effect1_dropShadow"/><feBlend in="SourceGraphic" in2="effect1_dropShadow" mode="normal" result="shape"/></filter><filter id="c" color-interpolation-filters="sRGB" filterUnits="userSpaceOnUse" height="150.044" width="229.67" x="463.321" y="2.95949"><feFlood flood-opacity="0" result="BackgroundImageFix"/><feColorMatrix in="SourceAlpha" type="matrix" values="0 0 0 0 0 0 0 0 0 0 0 0 0 0 0 0 0 0 127 0"/><feOffset dy="1.06566"/><feGaussianBlur stdDeviation="1.06566"/><feColorMatrix type="matrix" values="0 0 0 0 0 0 0 0 0 0 0 0 0 0 0 0 0 0 0.0796547 0"/><feBlend in2="BackgroundImageFix" mode="normal" result="effect1_dropShadow"/><feBlend in="SourceGraphic" in2="effect1_dropShadow" mode="normal" result="shape"/></filter><g filter="url(#a)"><rect fill="#fff" height="210.787" rx="4.77414" width="225.408" x="3" y="2.00049"/><rect height="210.19" rx="4.47576" stroke="#f1f1f1" stroke-width=".596768" width="224.811" x="3.29838" y="2.29887"/></g><g filter="url(#b)"><rect fill="#fff" height="160.701" rx="4.77414" width="225.408" x="234.162" y="3.9187"/><rect height="160.104" rx="4.47576" stroke="#f1f1f1" stroke-width=".596768" width="224.811" x="234.46" y="4.21709"/></g><g filter="url(#c)"><rect fill="#fff" height="145.782" rx="4.77414" width="225.408" x="465.452" y="4.02515"/><rect height="145.185" rx="4.47576" stroke="#f1f1f1" stroke-width=".596768" width="224.811" x="465.751" y="4.32353"/></g><rect fill="#575fcf" height="16.7095" rx="8.35475" width="16.7095" x="109.565" y="174.637"/><rect fill="#575fcf" height="16.7095" rx="8.35475" width="16.7095" x="340.728" y="126.469"/><rect fill="#575fcf" height="16.7095" rx="8.35475" width="16.7095" x="572.018" y="110.591"/><g fill="#fff"><path d="m118.349 183.121v2.718c0 .235-.19.426-.425.426s-.426-.191-.426-.426l.001-2.718-2.718.001c-.235 0-.426-.191-.426-.426s.191-.425.426-.425h2.718l-.001-2.718c0-.235.191-.425.426-.425s.425.19.425.425v2.718h2.718c.235 0 .425.19.425.425s-.19.426-.425.426z"/><path d="m349.511 134.954v2.718c0 .235-.19.425-.425.425s-.426-.19-.426-.425l.001-2.718h-2.718c-.235 0-.425-.19-.425-.425s.19-.426.425-.426l2.718.001-.001-2.718c0-.235.191-.426.426-.426s.425.191.425.426v2.718l2.718-.001c.235 0 .425.191.425.426s-.19.425-.425.425z"/><path d="m580.801 119.076v2.717c0 .235-.19.426-.425.426s-.425-.191-.425-.426v-2.717h-2.718c-.235 0-.425-.191-.425-.426s.19-.425.425-.425h2.718v-2.718c0-.235.19-.425.425-.425s.425.19.425.425v2.718h2.718c.235 0 .425.19.425.425s-.19.426-.425.426z"/><rect fill-opacity=".060688" height="12.5321" rx="4.47576" stroke="#ccc" stroke-width=".596768" width="12.5321" x="35.2681" y="91.7288"/><rect fill-opacity=".060688" height="12.5321" rx="4.47576" stroke="#ccc" stroke-width=".596768" width="12.5321" x="266.43" y="51.0208"/><rect fill-opacity=".060688" height="12.5321" rx="4.47576" stroke="#ccc" stroke-width=".596768" width="12.5321" x="497.72" y="51.1272"/></g><path d="m43.6232 96.2046-2.4429 3.4104c-.1029.109-.2424.1702-.388.1702-.1455 0-.285-.0612-.3879-.1702l-1.2569-1.3338" stroke="#ccc" stroke-linecap="round" stroke-linejoin="round" stroke-width="1.19354"/><path d="m43.6232 120.075-2.4429 3.411c-.1029.109-.2424.17-.388.17-.1455 0-.285-.061-.3879-.17l-1.2569-1.334" stroke="#ccc" stroke-linecap="round" stroke-linejoin="round" stroke-width="1.19354"/><rect fill="#fff" fill-opacity=".060688" height="12.5321" rx="4.47576" stroke="#ccc" stroke-width=".596768" width="12.5321" x="35.2681" y="115.514"/><rect fill="#ff7c85" height="11.0828" rx="5.54141" width="135.552" x="53.1289" y="92.3682"/><rect fill="#ffdd59" height="11.0828" rx="5.54141" width="135.552" x="284.291" y="51.6602"/><rect fill="#edacc8" height="11.0828" rx="5.54141" width="135.552" x="515.581" y="51.7666"/><path d="m303.996 72.6637v5.3256h.798v-5.3256h2v-.672h-4.797v.672zm2.931 3.1584c0-.2632.034-.4956.101-.6972.073-.2072.171-.3808.294-.5208s.266-.2464.428-.3192c.168-.0728.345-.1092.53-.1092.184 0 .358.0364.52.1092.168.0728.314.1792.437.3192s.219.3136.286.5208c.073.2016.109.434.109.6972s-.036.4984-.109.7056c-.067.2016-.163.3724-.286.5124-.123.1344-.269.238-.437.3108-.162.0728-.336.1092-.52.1092-.185 0-.362-.0364-.53-.1092-.162-.0728-.305-.1764-.428-.3108-.123-.14-.221-.3108-.294-.5124-.067-.2072-.101-.4424-.101-.7056zm-.756 0c0 .3192.045.616.135.8904.089.2744.224.5152.403.7224.179.2016.4.3612.663.4788.264.112.566.168.908.168.347 0 .649-.056.907-.168.263-.1176.484-.2772.663-.4788.18-.2072.314-.448.404-.7224.089-.2744.134-.5712.134-.8904s-.045-.616-.134-.8904c-.09-.28-.224-.5208-.404-.7224-.179-.2072-.4-.3696-.663-.4872-.258-.1176-.56-.1764-.907-.1764-.342 0-.644.0588-.908.1764-.263.1176-.484.28-.663.4872-.179.2016-.314.4424-.403.7224-.09.2744-.135.5712-.135.8904zm5.059-2.1756v4.3428h.714v-2.7048c0-.084.019-.1876.059-.3108.044-.1288.112-.252.201-.3696.095-.1176.216-.2184.361-.3024.152-.084.331-.126.538-.126.162 0 .294.0252.395.0756.106.0448.19.112.252.2016.061.084.103.1848.126.3024.028.1176.042.2464.042.3864v2.8476h.714v-2.7048c0-.336.101-.6048.302-.8064.202-.2016.479-.3024.832-.3024.173 0 .313.0252.42.0756.112.0504.199.1204.26.21.062.084.104.1848.126.3024.023.1176.034.2436.034.378v2.8476h.714v-3.1836c0-.224-.037-.4144-.109-.5712-.068-.1624-.166-.294-.294-.3948-.124-.1008-.275-.1736-.454-.2184-.174-.0504-.37-.0756-.588-.0756-.286 0-.549.0644-.79.1932-.235.1288-.425.3108-.571.546-.089-.2688-.243-.4592-.462-.5712-.218-.112-.462-.168-.731-.168-.61 0-1.078.2464-1.402.7392h-.017v-.6384zm7.682 2.1756c0-.2632.034-.4956.101-.6972.073-.2072.171-.3808.294-.5208s.266-.2464.428-.3192c.168-.0728.345-.1092.529-.1092.185 0 .359.0364.521.1092.168.0728.314.1792.437.3192s.218.3136.286.5208c.072.2016.109.434.109.6972s-.037.4984-.109.7056c-.068.2016-.163.3724-.286.5124-.123.1344-.269.238-.437.3108-.162.0728-.336.1092-.521.1092-.184 0-.361-.0364-.529-.1092-.162-.0728-.305-.1764-.428-.3108-.123-.14-.221-.3108-.294-.5124-.067-.2072-.101-.4424-.101-.7056zm-.756 0c0 .3192.045.616.134.8904.09.2744.224.5152.404.7224.179.2016.4.3612.663.4788.263.112.566.168.907.168.348 0 .65-.056.908-.168.263-.1176.484-.2772.663-.4788.179-.2072.314-.448.403-.7224.09-.2744.135-.5712.135-.8904s-.045-.616-.135-.8904c-.089-.28-.224-.5208-.403-.7224-.179-.2072-.4-.3696-.663-.4872-.258-.1176-.56-.1764-.908-.1764-.341 0-.644.0588-.907.1764s-.484.28-.663.4872c-.18.2016-.314.4424-.404.7224-.089.2744-.134.5712-.134.8904zm5.033-2.1756v4.3428h.714v-1.932c0-.28.028-.5264.084-.7392.056-.2184.146-.4032.269-.5544s.286-.266.487-.3444c.202-.0784.446-.1176.731-.1176v-.756c-.386-.0112-.705.0672-.957.2352s-.465.4284-.639.7812h-.017v-.9156zm2.798 0v4.3428h.714v-1.932c0-.28.028-.5264.084-.7392.056-.2184.145-.4032.268-.5544.124-.1512.286-.266.488-.3444.201-.0784.445-.1176.73-.1176v-.756c-.386-.0112-.705.0672-.957.2352s-.465.4284-.639.7812h-.016v-.9156zm3.195 2.1756c0-.2632.034-.4956.101-.6972.073-.2072.171-.3808.294-.5208s.266-.2464.428-.3192c.168-.0728.345-.1092.53-.1092.184 0 .358.0364.52.1092.168.0728.314.1792.437.3192s.219.3136.286.5208c.073.2016.109.434.109.6972s-.036.4984-.109.7056c-.067.2016-.163.3724-.286.5124-.123.1344-.269.238-.437.3108-.162.0728-.336.1092-.52.1092-.185 0-.362-.0364-.53-.1092-.162-.0728-.305-.1764-.428-.3108-.123-.14-.221-.3108-.294-.5124-.067-.2072-.101-.4424-.101-.7056zm-.756 0c0 .3192.045.616.135.8904.089.2744.224.5152.403.7224.179.2016.4.3612.663.4788.264.112.566.168.908.168.347 0 .649-.056.907-.168.263-.1176.484-.2772.663-.4788.18-.2072.314-.448.404-.7224.089-.2744.134-.5712.134-.8904s-.045-.616-.134-.8904c-.09-.28-.224-.5208-.404-.7224-.179-.2072-.4-.3696-.663-.4872-.258-.1176-.56-.1764-.907-.1764-.342 0-.644.0588-.908.1764-.263.1176-.484.28-.663.4872-.179.2016-.314.4424-.403.7224-.09.2744-.135.5712-.135.8904zm9.36 2.1672 1.386-4.3428h-.74l-.974 3.5532h-.017l-.907-3.5532h-.781l-.874 3.5532h-.017l-.982-3.5532h-.79l1.394 4.3428h.773l.874-3.4524h.017l.882 3.4524z" fill="#999"/><path d="m283.225 66.5793h16.7095v16.7095h-16.7095z" fill="#d8d8d8" opacity=".01"/><path d="m286.566 72.1491c0-.6152.499-1.1139 1.114-1.1139h7.798c.615 0 1.114.4987 1.114 1.1139v6.6838c0 .6152-.499 1.114-1.114 1.114h-7.798c-.615 0-1.114-.4988-1.114-1.114z" style="fill-rule:evenodd;clip-rule:evenodd;stroke:#999;stroke-width:1.11397;stroke-linecap:round;stroke-linejoin:round"/><path d="m293.807 69.9211v1.0344" stroke="#999" stroke-linecap="round" stroke-linejoin="round" stroke-width="1.11397"/><path d="m289.352 69.9211v1.0344" stroke="#999" stroke-linecap="round" stroke-linejoin="round" stroke-width="1.11397"/><path d="m286.566 73.7802h10.026" stroke="#999" stroke-linecap="round" stroke-linejoin="round" stroke-width="1.11397"/><rect fill="#ffdd59" height="11.0828" rx="5.54141" width="127.026" x="53.1289" y="116.239"/><rect fill="#fff" fill-opacity=".060688" height="12.5321" rx="4.47576" stroke="#ccc" stroke-width=".596768" width="12.5321" x="35.2681" y="141.09"/><rect fill="#fff" fill-opacity=".060688" height="12.5321" rx="4.47576" stroke="#ccc" stroke-width=".596768" width="12.5321" x="266.43" y="92.9224"/><rect fill="#fff" fill-opacity=".060688" height="12.5321" rx="4.47576" stroke="#ccc" stroke-width=".596768" width="12.5321" x="497.72" y="77.044"/><rect fill="#edacc8" height="11.0828" rx="5.54141" width="127.026" x="53.1289" y="141.815"/><rect fill="#ff7c85" height="11.0828" rx="5.54141" width="127.026" x="284.291" y="93.647"/><rect fill="#ffb800" height="11.0828" rx="5.54141" width="127.026" x="515.581" y="77.7686"/><path clip-rule="evenodd" d="m36.1631 48.8042c0-.9887.8015-1.7903 1.7903-1.7903h54.3058c.9888 0 1.7903.8016 1.7903 1.7903 0 .9888-.8015 1.7903-1.7903 1.7903h-54.3058c-.9888 0-1.7903-.8015-1.7903-1.7903z" fill="#575fcf" fill-rule="evenodd" opacity=".133315"/><rect fill="#575fcf" height="3.58061" rx="1.7903" width="25.0642" x="36.1631" y="47.0139"/><path d="m36.2957 27.2606h4.4352c.7134 0 1.2953.1033 1.7459.3098.4505.2065.7979.4646 1.0419.7744.2441.3097.4083.6476.4928 1.0137.0939.3661.1408.704.1408 1.0138 0 .3097-.0469.6477-.1408 1.0137-.0845.3567-.2487.69-.4928.9997-.244.3098-.5914.5679-1.0419.7744-.4506.1971-1.0325.2957-1.7459.2957h-2.6752v3.8579h-1.76zm1.76 4.759h2.5766c.1971 0 .3989-.0281.6054-.0844.2066-.0564.3943-.1455.5632-.2676.1784-.1314.3192-.3003.4224-.5068.1127-.2159.169-.4835.169-.8026 0-.3285-.0469-.6007-.1408-.8166s-.2206-.3849-.3802-.5069c-.1595-.1314-.3426-.2206-.5491-.2675-.2065-.047-.4271-.0704-.6617-.0704h-2.6048zm7.4059-1.9852h1.5066v1.408h.0282c.0469-.1972.1361-.3896.2675-.5773.1408-.1878.305-.3567.4928-.5069.1971-.1596.413-.2863.6477-.3802.2346-.0938.474-.1408.718-.1408.1878 0 .3145.0047.3802.0141l.2253.0282v1.5488c-.1127-.0188-.23-.0329-.352-.0423-.1127-.0187-.2253-.0281-.3379-.0281-.2723 0-.5304.0563-.7744.1689-.2347.1033-.4412.2629-.6196.4788-.1783.2065-.3191.4646-.4224.7744-.1032.3097-.1548.6664-.1548 1.07v3.4637h-1.6052zm8.0395 7.4764c-.582 0-1.1029-.0938-1.5629-.2816-.4505-.1971-.8354-.4646-1.1545-.8025-.3098-.3379-.5492-.7416-.7181-1.2109-.1596-.4693-.2394-.9856-.2394-1.5488 0-.5538.0798-1.0654.2394-1.5347.1689-.4694.4083-.873.7181-1.2109.3191-.3379.704-.6007 1.1545-.7885.46-.1971.9809-.2957 1.5629-.2957s1.0982.0986 1.5488.2957c.4599.1878.8448.4506 1.1546.7885.3191.3379.5585.7415.718 1.2109.169.4693.2535.9809.2535 1.5347 0 .5632-.0845 1.0795-.2535 1.5488-.1595.4693-.3989.873-.718 1.2109-.3098.3379-.6947.6054-1.1546.8025-.4506.1878-.9668.2816-1.5488.2816zm0-1.2672c.3567 0 .6664-.0751.9293-.2252.2628-.1502.4787-.3473.6477-.5914.1689-.2441.2909-.5163.366-.8166.0845-.3098.1268-.6243.1268-.9434 0-.3098-.0423-.6195-.1268-.9293-.0751-.3097-.1971-.582-.366-.8166-.169-.2441-.3849-.4412-.6477-.5914-.2629-.1502-.5726-.2253-.9293-.2253s-.6665.0751-.9293.2253-.4787.3473-.6477.5914c-.1689.2346-.2956.5069-.3801.8166-.0751.3098-.1127.6195-.1127.9293 0 .3191.0376.6336.1127.9434.0845.3003.2112.5725.3801.8166.169.2441.3849.4412.6477.5914.2628.1501.5726.2252.9293.2252zm11.8662 1.0701h-1.5206v-.9856h-.0282c-.2158.4224-.5303.7275-.9433.9152-.413.1784-.8495.2675-1.3095.2675-.5725 0-1.0747-.0985-1.5065-.2956-.4224-.2065-.7744-.4835-1.056-.8308s-.4928-.7556-.6336-1.2249c-.1408-.4787-.2112-.9903-.2112-1.5347 0-.6571.0892-1.225.2675-1.7037.1784-.4787.413-.873.704-1.1827.3004-.3098.6383-.5351 1.0138-.6759.3848-.1502.7744-.2253 1.1686-.2253.2253 0 .4553.0235.6899.0704.2347.0376.46.1033.6759.1972.2159.0938.413.2159.5913.366.1878.1408.3426.3098.4647.5069h.0281v-3.7171h1.6051zm-5.6038-3.5622c0 .3097.0376.6148.1126.9152.0845.3004.2066.5679.3661.8025.169.2347.3802.4224.6336.5632.2535.1408.5538.2112.9011.2112.3567 0 .6618-.0751.9152-.2252.2629-.1502.4741-.3473.6336-.5914.169-.2441.291-.5163.3661-.8166.0845-.3098.1267-.6243.1267-.9434 0-.8073-.183-1.4362-.5491-1.8867-.3567-.4506-.8448-.6759-1.4643-.6759-.3755 0-.6946.0798-.9574.2394-.2535.1502-.4647.352-.6336.6054-.1596.2441-.2769.5257-.352.8448-.0657.3098-.0986.6289-.0986.9575zm13.7467 3.5622h-1.577v-1.0137h-.0281c-.1971.366-.4928.6617-.8871.887-.3848.2159-.779.3238-1.1827.3238-.9574 0-1.652-.2346-2.0838-.704-.4224-.4787-.6336-1.1968-.6336-2.1542v-4.6182h1.6051v4.4633c0 .6383.122 1.0889.3661 1.3517.244.2628.5867.3942 1.0278.3942.3379 0 .6195-.0516.8448-.1548.2253-.1033.4083-.2394.5491-.4084.1408-.1783.2394-.3895.2957-.6336.0657-.244.0986-.5068.0986-.7884v-4.224h1.6051zm6.6066-4.8435c-.0657-.4506-.2487-.7885-.5491-1.0138-.291-.2346-.6618-.352-1.1123-.352-.2065 0-.4271.0376-.6618.1127-.2347.0657-.4506.1971-.6477.3942-.1971.1878-.3614.4553-.4928.8026-.1314.3379-.1971.7838-.1971 1.3376 0 .3004.0329.6007.0986.9011.0751.3004.1877.5679.3379.8026.1596.2346.3614.4271.6054.5772.2441.1408.5398.2112.8871.2112.4693 0 .8542-.1455 1.1545-.4364.3098-.291.5022-.6993.5773-1.225h1.6051c-.1502.9481-.5115 1.6755-1.0841 2.1824-.5632.4975-1.3142.7462-2.2528.7462-.5726 0-1.0795-.0938-1.5207-.2816-.4318-.1971-.7978-.4599-1.0982-.7884-.3004-.338-.5304-.7369-.6899-1.1968-.1502-.46-.2253-.9575-.2253-1.4925 0-.5444.0751-1.056.2253-1.5347.1502-.4788.3754-.8918.6758-1.2391.3004-.3567.6712-.6336 1.1123-.8307.4506-.2065.9762-.3098 1.577-.3098.4224 0 .8213.0564 1.1968.169.3848.1033.7228.2628 1.0137.4787.3004.2159.5445.4881.7322.8167.1877.3285.3004.718.3379 1.1686zm2.1777-2.4358h1.2109v-2.1824h1.6051v2.1824h1.4502v1.1968h-1.4502v3.886c0 .169.0047.3145.0141.4365.0187.122.0516.2253.0985.3098.0563.0845.1361.1502.2394.1971.1032.0375.244.0563.4224.0563h.3379c.1126-.0094.2253-.0281.3379-.0563v1.239c-.1783.0188-.352.0376-.5209.0564-.169.0187-.3427.0281-.521.0281-.4224 0-.765-.0375-1.0278-.1126-.2535-.0845-.4553-.2018-.6055-.352-.1408-.1596-.2393-.3567-.2957-.5914-.0469-.2346-.0751-.5022-.0844-.8025v-4.2944h-1.2109zm10.7195 3.9283c0 .3848.0657.7134.1971.9856s.3145.4975.5491.6758c.2347.169.5022.2957.8026.3802.3097.0751.643.1126.9997.1126.3848 0 .7133-.0422.9856-.1267.2722-.0939.4928-.2112.6617-.352.169-.1408.291-.3004.3661-.4787.0751-.1878.1126-.3755.1126-.5632 0-.3849-.0891-.6665-.2675-.8448-.1689-.1878-.3567-.3192-.5632-.3943-.3567-.1314-.7744-.2534-1.2531-.366-.4693-.1221-1.0513-.2769-1.7459-.4647-.4318-.1126-.7932-.2581-1.0842-.4365-.2816-.1877-.5069-.3942-.6758-.6195-.169-.2253-.291-.4646-.3661-.7181-.0657-.2534-.0986-.5115-.0986-.7744 0-.5068.1033-.9433.3098-1.3094.2159-.3755.4975-.6852.8448-.9293.3473-.244.7415-.4224 1.1827-.535.4412-.122.8871-.1831 1.3376-.1831.5257 0 1.0185.0704 1.4784.2112.4694.1315.8777.3333 1.225.6055.3567.2722.6383.6101.8448 1.0137.2065.3943.3097.8542.3097 1.3799h-1.76c-.0469-.6477-.2675-1.103-.6617-1.3658-.3943-.2722-.8964-.4083-1.5066-.4083-.2065 0-.4177.0235-.6336.0704-.2159.0375-.413.1079-.5913.2112-.1784.0939-.3286.2253-.4506.3942-.1126.169-.169.3802-.169.6336 0 .3567.108.6383.3239.8448.2253.1972.5162.3473.8729.4506.0376.0094.1831.0516.4365.1267.2628.0657.5538.1408.873.2253.3191.0845.6289.169.9293.2534.3097.0751.5303.1315.6617.169.3286.1033.6148.2441.8589.4224s.4459.3849.6054.6195c.169.2253.291.4694.3661.7322.0845.2628.1267.5256.1267.7885 0 .5632-.1173 1.0466-.352 1.4502-.2252.3942-.5256.7181-.9011.9715-.3754.2535-.8025.4365-1.2813.5491-.4787.1221-.9668.1831-1.4643.1831-.5726 0-1.1123-.0704-1.6192-.2112s-.948-.3567-1.3235-.6477-.6758-.6618-.9011-1.1123c-.2253-.46-.3426-.9997-.352-1.6192zm7.792-3.9283h1.521v.9856h.028c.225-.4224.54-.7228.944-.9012.403-.1877.84-.2816 1.309-.2816.573 0 1.07.1033 1.492.3098.432.1971.789.474 1.071.8307.281.3473.492.7556.633 1.225.141.4693.211.9715.211 1.5065 0 .4881-.065.9622-.197 1.4221-.122.46-.314.8683-.577 1.225-.254.3473-.577.6289-.972.8448-.394.2065-.858.3097-1.394.3097-.234 0-.469-.0234-.704-.0704-.234-.0375-.459-.1032-.675-.1971-.216-.0938-.418-.2112-.606-.352-.178-.1502-.328-.3238-.45-.5209h-.029v3.6326h-1.605zm5.604 3.6467c0-.3286-.042-.6477-.127-.9575-.084-.3097-.211-.5819-.38-.8166-.169-.2441-.38-.4365-.633-.5773-.254-.1502-.545-.2253-.873-.2253-.676 0-1.188.2347-1.535.704-.338.4694-.507 1.0936-.507 1.8727 0 .3661.042.7087.127 1.0278.094.3098.23.5773.408.8026.179.2253.39.4036.634.535.253.1314.544.1971.873.1971.366 0 .676-.0751.929-.2252.253-.1502.46-.3427.62-.5773.169-.2441.286-.5163.352-.8167.075-.3097.112-.6242.112-.9433zm7.96-.6477c-.019-.2534-.075-.4975-.169-.7322-.084-.2346-.206-.4364-.366-.6054-.15-.1783-.338-.3191-.563-.4224-.216-.1126-.46-.169-.732-.169-.282 0-.54.0517-.775.1549-.225.0939-.422.23-.591.4083-.16.169-.291.3708-.394.6055-.094.2346-.146.4881-.155.7603zm-3.745 1.056c0 .2816.037.5538.112.8166.085.2629.207.4928.366.69.16.1971.362.3567.606.4787.244.1126.535.1689.873.1689.469 0 .845-.0985 1.126-.2956.291-.2065.507-.5116.648-.9152h1.521c-.085.3942-.23.7462-.437 1.056-.206.3097-.455.5725-.746.7884-.291.2065-.62.3614-.986.4647-.356.1126-.732.1689-1.126.1689-.573 0-1.08-.0938-1.521-.2816-.441-.1877-.816-.4505-1.126-.7884-.301-.338-.531-.7416-.69-1.2109-.15-.4694-.225-.9856-.225-1.5488 0-.5163.079-1.0044.239-1.4643.169-.4694.404-.8777.704-1.225.31-.3567.681-.6383 1.112-.8448.432-.2065.92-.3098 1.465-.3098.572 0 1.084.1221 1.534.3661.46.2347.84.5491 1.141.9434.3.3942.516.8495.648 1.3657.14.5069.178 1.0326.112 1.577zm11.484-1.6192c-.065-.4506-.248-.7885-.549-1.0138-.291-.2346-.662-.352-1.112-.352-.207 0-.427.0376-.662.1127-.235.0657-.45.1971-.648.3942-.197.1878-.361.4553-.492.8026-.132.3379-.197.7838-.197 1.3376 0 .3004.032.6007.098.9011.075.3004.188.5679.338.8026.16.2346.361.4271.605.5772.244.1408.54.2112.887.2112.47 0 .855-.1455 1.155-.4364.31-.291.502-.6993.577-1.225h1.605c-.15.9481-.511 1.6755-1.084 2.1824-.563.4975-1.314.7462-2.253.7462-.572 0-1.079-.0938-1.52-.2816-.432-.1971-.798-.4599-1.098-.7884-.301-.338-.531-.7369-.69-1.1968-.151-.46-.226-.9575-.226-1.4925 0-.5444.075-1.056.226-1.5347.15-.4788.375-.8918.676-1.2391.3-.3567.671-.6336 1.112-.8307.45-.2065.976-.3098 1.577-.3098.422 0 .821.0564 1.197.169.384.1033.722.2628 1.013.4787.301.2159.545.4881.733.8167.187.3285.3.718.337 1.1686z" fill="#303030"/><path d="m39.664 70.4458c-.4439 0-.8293.0895-1.1563.2686-.3193.1791-.5801.4205-.7826.7242-.2024.2959-.3543.6346-.4555 1.0161-.0935.3816-.1402.7709-.1402 1.168s.0467.7865.1402 1.168c.1012.3816.2531.7242.4555 1.0279.2025.2959.4633.5333.7826.7124.327.1791.7124.2687 1.1563.2687.4438 0 .8254-.0896 1.1446-.2687.3271-.1791.5918-.4165.7943-.7124.2024-.3037.3504-.6463.4438-1.0279.1012-.3815.1518-.7709.1518-1.168s-.0506-.7864-.1518-1.168c-.0934-.3815-.2414-.7202-.4438-1.0161-.2025-.3037-.4672-.5451-.7943-.7242-.3192-.1791-.7008-.2686-1.1446-.2686zm0-1.1914c.6229 0 1.1797.1168 1.6702.3504.4984.2336.9189.549 1.2615.9461s.6034.8604.7825 1.3899c.1869.5295.2803 1.0901.2803 1.6819 0 .5996-.0934 1.1641-.2803 1.6936-.1791.5295-.4399.9928-.7825 1.3899-.3426.3972-.7631.7125-1.2615.9461-.4905.2258-1.0473.3387-1.6702.3387s-1.1836-.1129-1.6819-.3387c-.4906-.2336-.9072-.5489-1.2498-.9461-.3426-.3971-.6074-.8604-.7942-1.3899-.1791-.5295-.2687-1.094-.2687-1.6936 0-.5918.0896-1.1524.2687-1.6819.1868-.5295.4516-.9928.7942-1.3899s.7592-.7125 1.2498-.9461c.4983-.2336 1.059-.3504 1.6819-.3504zm5.1715.1986h1.3315v3.0835h.0234c.0934-.148.2063-.2803.3387-.3971s.2764-.2142.4321-.292c.1636-.0857.331-.148.5023-.1869.1791-.0467.3543-.0701.5256-.0701.475 0 .8877.0857 1.2381.257.3582.1635.654.3932.8876.6891.2336.2881.4088.6268.5256 1.0161.1168.3894.1752.806.1752 1.2498 0 .4049-.0545.7981-.1635 1.1797-.1012.3815-.2608.7202-.4789 1.0161-.2102.2881-.4788.5217-.8059.7008-.327.1713-.7125.257-1.1563.257-.2024 0-.4088-.0156-.619-.0467-.2025-.0234-.3972-.074-.584-.1519-.1869-.0778-.3582-.1791-.514-.3036-.1479-.1246-.2725-.2881-.3737-.4906h-.0234v.8293h-1.2614zm4.6486 5.326c0-.2725-.035-.5372-.1051-.7942s-.1752-.4828-.3154-.6774c-.1401-.2025-.3153-.3621-.5256-.4789-.2102-.1246-.4516-.1869-.7241-.1869-.5607 0-.985.1947-1.2731.584-.2804.3893-.4205.9071-.4205 1.5534 0 .3037.035.5879.1051.8527.0779.2569.1908.4789.3387.6657.148.1869.3232.3349.5256.4439.2103.109.4517.1635.7242.1635.3037 0 .5606-.0623.7709-.1869.2102-.1246.3815-.2842.5139-.4789.1401-.2024.2375-.4282.292-.6774.0623-.257.0934-.5178.0934-.7826zm2.4917-5.326h1.3315v1.2614h-1.3315zm0 2.3009h1.3315v6.5525c0 .5996-.1324 1.0629-.3971 1.3899-.2647.3271-.7086.4906-1.3315.4906-.1324 0-.2453-.0039-.3387-.0117-.0857-.0078-.1713-.0195-.257-.035v-1.0512c.0857.0155.1674.0272.2453.035.0778.0078.1479.0117.2102.0117.2414 0 .3894-.074.4439-.2219.0623-.148.0934-.3699.0934-.6658zm6.9287 2.4879c-.0156-.2103-.0623-.4127-.1402-.6074-.07-.1947-.1713-.3621-.3036-.5022-.1246-.148-.2804-.2648-.4672-.3504-.1791-.0935-.3816-.1402-.6074-.1402-.2336 0-.4477.0428-.6424.1285-.1869.0778-.3504.1908-.4906.3387-.1323.1402-.2413.3076-.327.5022-.0779.1947-.1207.4049-.1285.6308zm-3.1069.876c0 .2336.0312.4594.0935.6774.07.218.1713.4088.3036.5723.1324.1635.2998.2959.5023.3971.2024.0935.4438.1402.7241.1402.3894 0 .7008-.0818.9344-.2453.2414-.1713.4205-.4244.5373-.7592h1.2615c-.0701.3271-.1908.6191-.3621.876-.1713.257-.3777.475-.6191.6541-.2413.1713-.5139.2998-.8176.3854-.2958.0935-.6073.1402-.9344.1402-.4749 0-.8954-.0779-1.2614-.2336s-.6774-.3738-.9344-.6541c-.2492-.2803-.4399-.6151-.5723-1.0045-.1246-.3893-.1869-.8176-.1869-1.2848 0-.4282.0662-.8331.1986-1.2147.1401-.3893.3348-.728.584-1.0161.2569-.2959.5645-.5295.9227-.7008s.7631-.257 1.2147-.257c.475 0 .8994.1012 1.2731.3037.3816.1946.6969.4555.9461.7825.2492.3271.4283.7047.5373 1.133.1168.4205.1479.8565.0934 1.3082zm9.527-1.3432c-.0545-.3738-.2064-.6541-.4555-.841-.2414-.1947-.549-.292-.9228-.292-.1713 0-.3543.0311-.5489.0934-.1947.0545-.3738.1636-.5373.3271-.1635.1557-.2998.3776-.4088.6657-.109.2804-.1635.6502-.1635 1.1096 0 .2492.0272.4984.0817.7476.0623.2491.1558.4711.2804.6657.1323.1947.2997.3543.5022.4789.2025.1168.4477.1752.7358.1752.3894 0 .7086-.1207.9578-.3621.257-.2414.4166-.5801.4789-1.0161h1.3315c-.1246.7864-.4244 1.3899-.8994 1.8104-.4672.4127-1.0901.619-1.8688.619-.4749 0-.8954-.0779-1.2614-.2336-.3582-.1635-.6619-.3815-.911-.6541-.2492-.2803-.44-.6112-.5724-.9928-.1245-.3815-.1868-.7942-.1868-1.2381 0-.4516.0623-.876.1868-1.2731.1246-.3971.3115-.7397.5607-1.0278.2492-.2959.5567-.5256.9227-.6891.3738-.1713.8098-.257 1.3082-.257.3504 0 .6813.0467.9928.1402.3192.0856.5995.218.8409.3971.2492.1791.4516.4049.6074.6774.1557.2726.2492.5957.2803.9695zm1.8065-2.0207h1.0044v-1.8104h1.3316v1.8104h1.203v.9928h-1.203v3.2237c0 .1402.0039.2609.0116.3621.0156.1012.0429.1869.0818.2569.0467.0701.1129.1246.1986.1636.0856.0311.2024.0467.3504.0467h.2803c.0934-.0078.1869-.0234.2803-.0467v1.0278c-.1479.0156-.292.0311-.4322.0467-.1401.0156-.2842.0234-.4321.0234-.3504 0-.6346-.0312-.8527-.0935-.2102-.07-.3776-.1674-.5022-.292-.1168-.1323-.1986-.2959-.2453-.4905-.0389-.1947-.0623-.4166-.0701-.6658v-3.5624h-1.0044zm4.5319-2.3009h1.3315v1.2614h-1.3315zm0 2.3009h1.3315v6.0386h-1.3315zm2.1866 0h1.4483l1.5301 4.637h.0234l1.4717-4.637h1.3782l-2.1608 6.0386h-1.495zm10.7988 2.4879c-.0156-.2103-.0623-.4127-.1401-.6074-.0701-.1947-.1714-.3621-.3037-.5022-.1246-.148-.2803-.2648-.4672-.3504-.1791-.0935-.3816-.1402-.6074-.1402-.2336 0-.4477.0428-.6424.1285-.1869.0778-.3504.1908-.4905.3387-.1324.1402-.2414.3076-.3271.5022-.0779.1947-.1207.4049-.1285.6308zm-3.1069.876c0 .2336.0312.4594.0935.6774.0701.218.1713.4088.3037.5723.1323.1635.2997.2959.5022.3971.2024.0935.4438.1402.7242.1402.3893 0 .7008-.0818.9344-.2453.2413-.1713.4204-.4244.5372-.7592h1.2615c-.0701.3271-.1908.6191-.3621.876-.1713.257-.3777.475-.619.6541-.2414.1713-.514.2998-.8176.3854-.2959.0935-.6074.1402-.9344.1402-.475 0-.8955-.0779-1.2615-.2336s-.6774-.3738-.9344-.6541c-.2492-.2803-.4399-.6151-.5723-1.0045-.1246-.3893-.1869-.8176-.1869-1.2848 0-.4282.0662-.8331.1986-1.2147.1401-.3893.3348-.728.584-1.0161.2569-.2959.5645-.5295.9227-.7008s.7631-.257 1.2147-.257c.475 0 .8994.1012 1.2731.3037.3816.1946.6969.4555.9461.7825.2492.3271.4283.7047.5373 1.133.1168.4205.1479.8565.0934 1.3082zm6.4552.7358c.0389.3893.1868.6619.4438.8176s.5645.2336.9227.2336c.1246 0 .2648-.0078.4205-.0234.1635-.0233.3154-.0623.4555-.1168.1402-.0545.2531-.1323.3387-.2336.0935-.109.1363-.2491.1285-.4204s-.0701-.3115-.1869-.4205-.2686-.1947-.4555-.257c-.1791-.0701-.3854-.1285-.619-.1752s-.4711-.0973-.7125-.1518c-.2492-.0545-.4906-.1207-.7242-.1986-.2258-.0778-.4321-.183-.619-.3153-.1791-.1324-.3232-.2998-.4322-.5023-.109-.2102-.1635-.4672-.1635-.7709 0-.327.0779-.5995.2336-.8176.1635-.2258.366-.4049.6074-.5372.2491-.1402.5217-.2375.8176-.292.3037-.0545.5918-.0818.8643-.0818.3115 0 .6074.035.8877.1051.2881.0623.545.1674.7709.3154.2336.1479.4243.3426.5723.584.1557.2336.253.5178.292.8526h-1.3899c-.0623-.3192-.2103-.5334-.4439-.6424-.2258-.109-.4867-.1635-.7825-.1635-.0935 0-.2064.0078-.3388.0234-.1246.0155-.2452.0467-.362.0934-.1091.0389-.2025.1012-.2804.1869-.0778.0778-.1168.183-.1168.3153 0 .1636.0545.2959.1636.3972.1168.1012.2647.1868.4438.2569.1869.0623.3971.1168.6307.1635.2336.0468.475.0974.7242.1519.2414.0545.4789.1207.7125.1985.2336.0779.4399.183.619.3154.1869.1324.3348.2998.4438.5022.1168.2025.1752.4517.1752.7476 0 .3581-.0817.6618-.2452.911-.1636.2492-.3777.4516-.6424.6074-.257.1557-.5451.2686-.8644.3387-.3192.0701-.6346.1051-.946.1051-.3816 0-.7359-.0428-1.0629-.1285-.3193-.0856-.5996-.2141-.841-.3854-.2336-.1791-.4205-.3971-.5606-.6541-.1324-.2647-.2025-.5762-.2103-.9344z" fill="#303030"/><path clip-rule="evenodd" d="m22.4382 75.6586c0-.4944.4008-.8952.8952-.8952.4943 0 .8951.4008.8951.8952s-.4008.8951-.8951.8951c-.4944 0-.8952-.4007-.8952-.8951zm-.0005-4.7742c0-.4944.4008-.8951.8952-.8951.4943 0 .8951.4007.8951.8951s-.4008.8952-.8951.8952c-.4944 0-.8952-.4008-.8952-.8952zm.8957 1.4919c-.4944 0-.8952.4008-.8952.8952s.4008.8951.8952.8951c.4943 0 .8951-.4007.8951-.8951s-.4008-.8952-.8951-.8952z" fill="#ccc" fill-rule="evenodd"/><path clip-rule="evenodd" d="m24.8249 70.8844c0-.4944.4008-.8951.8952-.8951s.8951.4007.8951.8951-.4007.8952-.8951.8952-.8952-.4008-.8952-.8952zm0 4.7742c0-.4944.4007-.8952.8951-.8952s.8952.4008.8952.8952-.4008.8951-.8952.8951-.8951-.4007-.8951-.8951zm.8951-3.2823c-.4944 0-.8951.4008-.8951.8952s.4007.8951.8951.8951.8952-.4007.8952-.8951-.4008-.8952-.8952-.8952z" fill="#ccc" fill-rule="evenodd"/><path d="m267.275 28.7447h6.004v1.2614h-4.544v2.1842h4.205v1.1914h-4.205v2.4411h4.626v1.2614h-6.086zm7.171 2.301h1.261v.8876l.023.0234c.203-.3348.468-.5957.795-.7826.327-.1946.689-.292 1.086-.292.662 0 1.183.1714 1.565.514.381.3426.572.8565.572 1.5417v4.1464h-1.331v-3.796c-.016-.475-.117-.8176-.304-1.0278-.187-.218-.479-.3271-.876-.3271-.226 0-.428.0429-.607.1285-.179.0779-.331.1908-.456.3387-.124.1402-.222.3076-.292.5023s-.105.401-.105.619v3.5624h-1.331zm12.289 5.7232c0 .911-.257 1.5884-.77 2.0323-.507.4516-1.239.6774-2.196.6774-.304 0-.612-.0311-.923-.0934-.304-.0623-.584-.1674-.841-.3154-.249-.1479-.459-.3426-.631-.584-.171-.2414-.272-.5373-.303-.8877h1.331c.039.1869.105.3388.199.4556.093.1168.202.2063.327.2686.132.0701.276.1129.432.1285.156.0233.319.035.49.035.538 0 .931-.1323 1.18-.3971.249-.2647.374-.6463.374-1.1446v-.9228h-.023c-.187.3349-.444.5957-.771.7826-.32.1869-.666.2803-1.04.2803-.483 0-.895-.0817-1.238-.2453-.335-.1713-.615-.401-.841-.6891-.218-.2959-.378-.6346-.479-1.0161-.101-.3816-.152-.7904-.152-1.2264 0-.4049.063-.7904.187-1.1564.125-.3659.304-.6852.538-.9577.233-.2803.517-.5023.852-.6658.343-.1635.728-.2453 1.157-.2453.381 0 .731.0818 1.051.2453.319.1558.564.4049.736.7475h.023v-.8292h1.331zm-2.955-.7359c.296 0 .545-.0584.748-.1752.21-.1246.378-.2842.502-.4789.133-.2024.226-.4282.28-.6774.063-.257.094-.5139.094-.7709 0-.2569-.031-.5061-.094-.7475-.062-.2414-.159-.4555-.292-.6424-.124-.1869-.292-.3348-.502-.4438-.202-.109-.447-.1636-.736-.1636-.295 0-.545.0623-.747.1869-.203.1246-.366.2881-.491.4906-.124.1947-.214.4205-.268.6774-.055.2492-.082.4984-.082.7475 0 .2492.031.4945.093.7359.063.2336.156.4438.281.6307.132.1869.296.3387.49.4555.203.1168.444.1752.724.1752zm4.331-7.2883h1.332v1.2614h-1.332zm0 2.301h1.332v6.0385h-1.332zm2.782 0h1.262v.8876l.023.0234c.203-.3348.467-.5957.794-.7826.327-.1946.689-.292 1.087-.292.661 0 1.183.1714 1.565.514.381.3426.572.8565.572 1.5417v4.1464h-1.331v-3.796c-.016-.475-.117-.8176-.304-1.0278-.187-.218-.479-.3271-.876-.3271-.226 0-.428.0429-.608.1285-.179.0779-.33.1908-.455.3387-.125.1402-.222.3076-.292.5023s-.105.401-.105.619v3.5624h-1.332zm10.854 2.4878c-.016-.2102-.063-.4127-.141-.6074-.07-.1946-.171-.362-.303-.5022-.125-.1479-.281-.2647-.467-.3504-.18-.0934-.382-.1402-.608-.1402-.233 0-.448.0429-.642.1285-.187.0779-.351.1908-.491.3387-.132.1402-.241.3076-.327.5023-.078.1947-.12.4049-.128.6307zm-3.107.876c0 .2336.031.4594.093.6774.07.2181.171.4088.304.5724.132.1635.3.2959.502.3971.203.0934.444.1401.724.1401.39 0 .701-.0817.935-.2452.241-.1713.42-.4244.537-.7592h1.261c-.07.327-.19.619-.362.876-.171.2569-.377.475-.619.654-.241.1714-.514.2998-.817.3855-.296.0934-.608.1401-.935.1401-.475 0-.895-.0778-1.261-.2336-.366-.1557-.678-.3737-.935-.654-.249-.2804-.44-.6152-.572-1.0045-.124-.3893-.187-.8176-.187-1.2848 0-.4283.066-.8332.199-1.2147.14-.3894.335-.7281.584-1.0162.257-.2959.564-.5295.922-.7008.359-.1713.764-.257 1.215-.257.475 0 .9.1013 1.273.3037.382.1947.697.4555.946.7826.25.327.429.7047.538 1.1329.116.4205.148.8566.093 1.3082zm9.597-.876c-.016-.2102-.063-.4127-.14-.6074-.07-.1946-.172-.362-.304-.5022-.125-.1479-.28-.2647-.467-.3504-.179-.0934-.382-.1402-.608-.1402-.233 0-.447.0429-.642.1285-.187.0779-.35.1908-.491.3387-.132.1402-.241.3076-.327.5023-.077.1947-.12.4049-.128.6307zm-3.107.876c0 .2336.031.4594.093.6774.07.2181.172.4088.304.5724.132.1635.3.2959.502.3971.203.0934.444.1401.724.1401.39 0 .701-.0817.935-.2452.241-.1713.42-.4244.537-.7592h1.262c-.071.327-.191.619-.363.876-.171.2569-.377.475-.619.654-.241.1714-.514.2998-.817.3855-.296.0934-.608.1401-.935.1401-.475 0-.895-.0778-1.261-.2336-.366-.1557-.677-.3737-.934-.654-.25-.2804-.44-.6152-.573-1.0045-.124-.3893-.187-.8176-.187-1.2848 0-.4283.067-.8332.199-1.2147.14-.3894.335-.7281.584-1.0162.257-.2959.564-.5295.923-.7008.358-.1713.763-.257 1.214-.257.475 0 .9.1013 1.273.3037.382.1947.697.4555.947.7826.249.327.428.7047.537 1.1329.117.4205.148.8566.093 1.3082zm5.451-3.3638h1.249v1.168h.024c.039-.1636.113-.3232.222-.4789.116-.1557.253-.2959.408-.4205.164-.1324.343-.2375.538-.3154.194-.0778.393-.1168.595-.1168.156 0 .261.0039.316.0117.062.0078.124.0156.187.0234v1.2848c-.094-.0156-.191-.0273-.292-.0351-.094-.0155-.187-.0233-.281-.0233-.226 0-.44.0467-.642.1401-.195.0857-.366.2181-.514.3972-.148.1713-.265.3854-.35.6424-.086.2569-.129.5528-.129.8876v2.8733h-1.331zm4.141-2.301h1.331v1.2614h-1.331zm0 2.301h1.331v6.0385h-1.331zm2.782 0h1.262v.8876l.023.0234c.202-.3348.467-.5957.794-.7826.327-.1946.689-.292 1.086-.292.662 0 1.184.1714 1.566.514.381.3426.572.8565.572 1.5417v4.1464h-1.332v-3.796c-.015-.475-.116-.8176-.303-1.0278-.187-.218-.479-.3271-.876-.3271-.226 0-.429.0429-.608.1285-.179.0779-.331.1908-.455.3387-.125.1402-.222.3076-.292.5023s-.105.401-.105.619v3.5624h-1.332zm12.29 5.7232c0 .911-.257 1.5884-.771 2.0323-.506.4516-1.238.6774-2.196.6774-.303 0-.611-.0311-.922-.0934-.304-.0623-.584-.1674-.841-.3154-.25-.1479-.46-.3426-.631-.584s-.273-.5373-.304-.8877h1.332c.039.1869.105.3388.198.4556.094.1168.203.2063.327.2686.133.0701.277.1129.433.1285.155.0233.319.035.49.035.537 0 .931-.1323 1.18-.3971.249-.2647.374-.6463.374-1.1446v-.9228h-.024c-.187.3349-.444.5957-.771.7826-.319.1869-.665.2803-1.039.2803-.483 0-.896-.0817-1.238-.2453-.335-.1713-.615-.401-.841-.6891-.218-.2959-.378-.6346-.479-1.0161-.101-.3816-.152-.7904-.152-1.2264 0-.4049.062-.7904.187-1.1564.124-.3659.304-.6852.537-.9577.234-.2803.518-.5023.853-.6658.342-.1635.728-.2453 1.156-.2453.382 0 .732.0818 1.051.2453.32.1558.565.4049.736.7475h.024v-.8292h1.331zm-2.955-.7359c.296 0 .545-.0584.748-.1752.21-.1246.377-.2842.502-.4789.132-.2024.226-.4282.28-.6774.062-.257.094-.5139.094-.7709 0-.2569-.032-.5061-.094-.7475s-.16-.4555-.292-.6424c-.125-.1869-.292-.3348-.502-.4438-.203-.109-.448-.1636-.736-.1636-.296 0-.545.0623-.748.1869-.202.1246-.365.2881-.49.4906-.125.1947-.214.4205-.269.6774-.054.2492-.081.4984-.081.7475 0 .2492.031.4945.093.7359.062.2336.156.4438.28.6307.133.1869.296.3387.491.4555.202.1168.444.1752.724.1752z" fill="#303030"/><path d="m498.565 28.8514h3.458c.638 0 1.191.109 1.658.327.467.2181.849.5179 1.145.8994.296.3738.514.8137.654 1.3198.148.5062.222 1.0473.222 1.6236 0 .5762-.074 1.1173-.222 1.6235-.14.5061-.358.95-.654 1.3315-.296.3738-.678.6697-1.145.8877s-1.02.327-1.658.327h-3.458zm1.46 7.1482h1.437c.568 0 1.032-.074 1.39-.222.366-.1557.65-.3659.853-.6307.21-.2725.35-.5879.42-.9461.078-.3659.117-.7592.117-1.1796 0-.4205-.039-.8099-.117-1.168-.07-.366-.21-.6814-.42-.9461-.203-.2726-.487-.4828-.853-.6307-.358-.1558-.822-.2336-1.39-.2336h-1.437zm10.929-2.3594c-.015-.2102-.062-.4127-.14-.6074-.07-.1946-.171-.362-.304-.5022-.124-.1479-.28-.2647-.467-.3504-.179-.0934-.381-.1402-.607-.1402-.234 0-.448.0429-.643.1285-.187.0779-.35.1908-.49.3387-.133.1402-.242.3076-.327.5023-.078.1946-.121.4049-.129.6307zm-3.107.876c0 .2336.031.4594.094.6774.07.2181.171.4088.303.5724.133.1635.3.2959.503.3971.202.0934.443.1401.724.1401.389 0 .701-.0817.934-.2452.242-.1713.421-.4244.537-.7592h1.262c-.07.327-.191.619-.362.876-.171.2569-.378.4749-.619.654-.242.1713-.514.2998-.818.3855-.296.0934-.607.1401-.934.1401-.475 0-.896-.0778-1.262-.2336-.366-.1557-.677-.3737-.934-.654-.249-.2804-.44-.6152-.572-1.0045-.125-.3894-.187-.8176-.187-1.2848 0-.4283.066-.8332.198-1.2147.14-.3894.335-.7281.584-1.0162.257-.2959.565-.5295.923-.7008s.763-.257 1.215-.257c.475 0 .899.1013 1.273.3037.381.1947.697.4555.946.7826.249.327.428.7047.537 1.1329.117.4205.148.8566.094 1.3082zm6.455.7358c.039.3894.187.6619.444.8176.257.1558.565.2336.923.2336.125 0 .265-.0077.42-.0233.164-.0234.316-.0623.456-.1168s.253-.1324.339-.2336c.093-.109.136-.2492.128-.4205s-.07-.3115-.187-.4205-.268-.1946-.455-.2569c-.179-.0701-.386-.1285-.619-.1752-.234-.0468-.471-.0974-.713-.1519-.249-.0545-.49-.1207-.724-.1985-.226-.0779-.432-.183-.619-.3154-.179-.1324-.323-.2998-.432-.5022-.109-.2103-.164-.4672-.164-.7709 0-.3271.078-.5996.234-.8176.163-.2258.366-.4049.607-.5373.249-.1402.522-.2375.818-.292.304-.0545.592-.0818.864-.0818.312 0 .608.0351.888.1052.288.0623.545.1674.771.3153.233.148.424.3426.572.584.156.2336.253.5178.292.8527h-1.39c-.062-.3193-.21-.5334-.444-.6424-.225-.1091-.486-.1636-.782-.1636-.094 0-.207.0078-.339.0234-.125.0156-.245.0467-.362.0934-.109.039-.202.1013-.28.1869-.078.0779-.117.183-.117.3154 0 .1635.054.2959.163.3971.117.1012.265.1869.444.257.187.0623.397.1168.631.1635s.475.0973.724.1518c.241.0545.479.1207.713.1986.233.0778.44.183.619.3153.187.1324.334.2998.443.5023.117.2024.176.4516.176.7475 0 .3582-.082.6619-.246.911-.163.2492-.377.4517-.642.6074-.257.1557-.545.2686-.864.3387-.32.0701-.635.1051-.946.1051-.382 0-.736-.0428-1.063-.1284-.32-.0857-.6-.2142-.841-.3855-.234-.1791-.421-.3971-.561-.6541-.132-.2647-.202-.5762-.21-.9344zm5.088-6.4006h1.331v1.2614h-1.331zm0 2.301h1.331v6.0385h-1.331zm8.365 5.7232c0 .911-.257 1.5884-.771 2.0323-.506.4516-1.238.6774-2.196.6774-.303 0-.611-.0311-.922-.0934-.304-.0623-.584-.1674-.841-.3154-.25-.1479-.46-.3426-.631-.584s-.273-.5373-.304-.8877h1.332c.039.1869.105.3388.198.4556.094.1168.203.2063.327.2686.133.0701.277.1129.432.1285.156.0233.32.035.491.035.537 0 .931-.1324 1.18-.3971s.373-.6463.373-1.1446v-.9228h-.023c-.187.3349-.444.5957-.771.7826-.319.1869-.666.2803-1.039.2803-.483 0-.896-.0817-1.238-.2453-.335-.1713-.615-.401-.841-.6891-.218-.2959-.378-.6346-.479-1.0161-.101-.3816-.152-.7904-.152-1.2264 0-.4049.062-.7904.187-1.1564.124-.3659.304-.6852.537-.9577.234-.2803.518-.5023.853-.6658.342-.1635.728-.2453 1.156-.2453.382 0 .732.0818 1.051.2453.32.1558.565.4049.736.7475h.023v-.8292h1.332zm-2.955-.7359c.296 0 .545-.0584.747-.1752.211-.1246.378-.2842.503-.4789.132-.2024.226-.4282.28-.6774.062-.257.093-.5139.093-.7709 0-.2569-.031-.5061-.093-.7475s-.16-.4555-.292-.6424c-.125-.1869-.292-.3348-.502-.4438-.203-.1091-.448-.1636-.736-.1636-.296 0-.545.0623-.748.1869-.202.1246-.366.2881-.49.4906-.125.1946-.214.4205-.269.6774-.054.2492-.082.4984-.082.7475 0 .2492.032.4945.094.7359.062.2336.156.4438.28.6307.133.1869.296.3387.491.4555.202.1168.444.1752.724.1752zm4.296-4.9873h1.261v.8876l.023.0234c.203-.3348.468-.5957.795-.7826.327-.1946.689-.292 1.086-.292.662 0 1.183.1713 1.565.514.382.3426.572.8565.572 1.5417v4.1464h-1.331v-3.796c-.016-.475-.117-.8176-.304-1.0278-.187-.218-.479-.3271-.876-.3271-.226 0-.428.0429-.607.1285-.179.0779-.331.1908-.456.3387-.124.1402-.222.3076-.292.5023-.07.1946-.105.401-.105.619v3.5624h-1.331z" fill="#303030"/><path clip-rule="evenodd" d="m252.535 34.9505c0-.4943.401-.8951.895-.8951s.895.4008.895.8951c0 .4944-.401.8952-.895.8952s-.895-.4008-.895-.8952zm-.001-4.7741c0-.4944.401-.8952.896-.8952.494 0 .895.4008.895.8952s-.401.8952-.895.8952c-.495 0-.896-.4008-.896-.8952zm.896 1.4919c-.494 0-.895.4008-.895.8952 0 .4943.401.8951.895.8951s.895-.4008.895-.8951c0-.4944-.401-.8952-.895-.8952z" fill="#ccc" fill-rule="evenodd"/><path clip-rule="evenodd" d="m254.922 34.9505c0-.4943.4-.8951.895-.8951.494 0 .895.4008.895.8951 0 .4944-.401.8952-.895.8952-.495 0-.895-.4008-.895-.8952zm-.001-4.7741c0-.4944.401-.8952.895-.8952.495 0 .895.4008.895.8952s-.4.8952-.895.8952c-.494 0-.895-.4008-.895-.8952zm.896 1.4919c-.495 0-.895.4008-.895.8952 0 .4943.4.8951.895.8951.494 0 .895-.4008.895-.8951 0-.4944-.401-.8952-.895-.8952z" fill="#ccc" fill-rule="evenodd"/></svg>