<svg enable-background="new 0 0 885.5 899.6" viewBox="0 0 885.5 899.6" xmlns="http://www.w3.org/2000/svg"><path d="m33.2 110.6h242.9v174h-242.9z" fill="#fff"/><path d="m33.2 286.1h242.9c.8 0 1.5-.7 1.5-1.5v-174c0-.8-.7-1.5-1.5-1.5h-242.9c-.8 0-1.5.7-1.5 1.5v174c0 .9.7 1.5 1.5 1.5zm241.4-3h-239.9v-171h239.9z" fill="#ffc800"/><path d="m95.8 179.3c-15.3-7.8-34.3-1.7-42.2 13.6-7.8 15.3-1.7 34.3 13.6 42.2 9.6-18.6 19.1-37.2 28.6-55.8z" fill="#1f0d60"/><path d="m200 180.1h50.7v50.7h-50.7z" fill="#00dc99"/><path d="m180.9 187c-.2-3.1-.8-6.1-1.9-9.1l-16.8 5.7c1.6 4.7 1.3 9.8-1 14.3-2.2 4.5-6 7.9-10.7 9.5s-9.8 1.3-14.3-1c-4.5-2.2-7.9-6-9.5-10.7l-16.8 5.7c3.1 9.2 9.7 16.6 18.5 20.9s18.7 4.9 27.8 1.8c9.2-3.1 16.6-9.7 20.9-18.5 3-5.8 4.3-12.2 3.8-18.6z" fill="#ff0f97"/><ellipse cx="660.5" cy="38.5" fill="#ffc800" rx="38.5" ry="38.5" transform="matrix(.9487 -.3162 .3162 .9487 21.7125 210.8611)"/><path d="m147.2 112.1c.8 0 1.5-.7 1.5-1.5v-70.6h476.3c.8 0 1.5-.7 1.5-1.5s-.7-1.5-1.5-1.5h-477.8c-.8 0-1.5.7-1.5 1.5v72.1c0 .8.6 1.5 1.5 1.5z" fill="#ffc800"/><path d="m68.1 637.1h82.3c.8 0 1.5-.7 1.5-1.5s-.7-1.5-1.5-1.5h-80.8v-349.5c0-.8-.7-1.5-1.5-1.5s-1.5.7-1.5 1.5v351c0 .9.7 1.5 1.5 1.5z" fill="#ffc800"/><path d="m150.4 462.1h473.5v317h-473.5z" fill="#fff"/><path d="m150.4 780.6h473.5c.8 0 1.5-.7 1.5-1.5v-317c0-.8-.7-1.5-1.5-1.5h-473.5c-.8 0-1.5.7-1.5 1.5v317c0 .8.7 1.5 1.5 1.5zm472-3h-470.5v-314h470.5z" fill="#ffc800"/><path d="m150.9 514.3h473c.8 0 1.5-.7 1.5-1.5s-.7-1.5-1.5-1.5h-473c-.8 0-1.5.7-1.5 1.5s.6 1.5 1.5 1.5z" fill="#ffc800"/><path d="m557.8 502.6c8.2 0 14.9-6.7 14.9-14.9s-6.7-14.9-14.9-14.9-14.9 6.7-14.9 14.9 6.7 14.9 14.9 14.9zm0-26.8c6.5 0 11.9 5.3 11.9 11.9s-5.3 11.9-11.9 11.9c-6.5 0-11.9-5.3-11.9-11.9s5.3-11.9 11.9-11.9z" fill="#ffc800"/><path d="m513.5 502.6c8.2 0 14.9-6.7 14.9-14.9s-6.7-14.9-14.9-14.9-14.9 6.7-14.9 14.9 6.7 14.9 14.9 14.9zm0-26.8c6.5 0 11.9 5.3 11.9 11.9s-5.3 11.9-11.9 11.9c-6.5 0-11.9-5.3-11.9-11.9s5.4-11.9 11.9-11.9z" fill="#ffc800"/><path d="m150.4 780.6h218.7c.3 0 .6-.1.9-.3l35.9-25.1c20.8-14.5 41.5-29.1 62.3-43.6.5-.4.7-1 .6-1.6-.2-.6-.7-1.1-1.3-1.1l-121.9-14.1c17-36.4 33.9-72.8 50.9-109.2.3-.6.1-1.3-.4-1.8s-1.3-.5-1.8-.1c-27.3 19.3-54.6 38.5-81.9 57.8l-22.2 15.6-15.9-116.7c-.1-.6-.6-1.2-1.2-1.3s-1.3.2-1.6.8l-51.3 98.8-68.5-100.9c-.4-.5-1.1-.8-1.7-.6s-1.1.8-1.1 1.4v240.3c0 1 .7 1.7 1.5 1.7zm218.2-3h-216.7v-234l67.2 98.9c.3.4.8.7 1.3.7s1-.3 1.2-.8l50.3-96.9 15.6 114.5c.1.5.4 1 .9 1.2s1 .2 1.5-.1l24.2-17.1c25.8-18.2 51.6-36.3 77.3-54.5-16.5 35.3-33 70.6-49.4 105.9-.2.4-.2.9 0 1.4.2.4.7.7 1.1.8l120 13.8c-19.7 13.8-39.4 27.6-59.1 41.3z" fill="#ffc800"/><path d="m602.1 502.6c8.2 0 14.9-6.7 14.9-14.9s-6.7-14.9-14.9-14.9-14.9 6.7-14.9 14.9 6.7 14.9 14.9 14.9zm0-26.8c6.5 0 11.9 5.3 11.9 11.9s-5.3 11.9-11.9 11.9-11.9-5.3-11.9-11.9 5.3-11.9 11.9-11.9z" fill="#ffc800"/><path d="m179.5 899.1 2.3-2c-7.2-8.3-17.7-21.9-23.2-35.6 7-1.3 14.3-4.4 17.5-10.8 2.3-4.7 2.9-12-1.4-17-4.3-5.1-12.5-6.6-17.5-3.3-4.9 3.3-5.1 10.2-5.2 13.5-.2 4.9.8 10 2.6 15.1-2.6.3-5 .3-7.1.2-15.6-1-27.2-13-34.3-22.8-7.7-10.7-13.2-23.3-16.6-34.4 5.1-.2 9.7-1.5 13.7-3.9 2.9-1.7 12.4-8.1 12.8-18.9.1-2.3-.2-10.1-6.4-14.8-6.5-4.9-15.8-3.5-20.9.7-2.6 2.1-4.4 5.1-5.3 8.9-1.4 5.4-.6 14.6 2.2 24.9-3.2-.2-5.8-.8-7.2-1.2-34.6-8.1-68.3-83.7-68.7-84.5l-2.7 1.2c.1.2 8.7 19.6 21.5 39.7 17.4 27.3 34 42.9 49.2 46.5 3 .7 6 1.1 8.7 1.3 3.5 12 9.5 25.3 17.3 36.2 10.7 14.8 23.3 23.1 36.5 24 2.3.2 5.2.1 8.4-.3 5.5 14.6 16.4 28.7 23.8 37.3zm-16-67.4c3.2 0 6.7 1.4 8.9 4 3.4 4 2.9 9.9 1 13.7-2.7 5.3-9.3 8.1-15.9 9.3-1.7-5-2.7-9.9-2.6-14.6.1-3 .3-8.7 3.9-11.1 1.3-.9 3-1.3 4.7-1.3zm-56.5-67.3c2.8 0 5.5.7 7.9 2.5 5.1 3.8 5.2 10.4 5.2 12.3-.3 9.2-8.7 14.9-11.3 16.4-4.4 2.6-9 3.4-13 3.5-2.8-10.5-3.7-19.6-2.4-24.2.3-1.2 1.2-4.7 4.3-7.3 2.2-2 5.7-3.2 9.3-3.2z" fill="#d5e0ea"/><path d="m732.2 379c5 0 9.9-.8 14.5-2.2 17.4-5.6 25.3-19.3 28.3-24.4.2-.4.4-.8.7-1.2 3.1 1.7 6.4 2.8 9.5 3.1.8.1 1.5.1 2.3.1 16 0 28.6-18.3 34.8-27.3 3-4.3 7.3-11.6 9.5-20.4 7.9 1 15.2-4 18.1-6.1 10.4-7.1 14-17.7 17.1-26.9 3.4-10.1 4.9-20.8 4.4-31.9 0-.6-.5-1-1-.9-.6 0-1 .5-.9 1 .5 10.8-.9 21.3-4.2 31.2-3.1 9-6.5 19.2-16.4 25.9-3 2.1-9.5 6.5-16.6 5.7.7-3.2 1-6.6.9-10.1-.1-3.3-.3-11.1-5.5-14.2-1-.6-3.5-1.9-6.3-1.1-3.9 1.1-5.3 5.6-5.5 6.5-2 7 4.1 16.9 12.2 19.9.6.2 1.2.4 1.7.5-2.1 8.4-6.3 15.5-9.1 19.7-6.3 9.1-19.3 28.1-35.2 26.3-2.9-.3-6-1.3-8.8-2.9 2.8-5.2 6-12.6 3-18.5-.8-1.5-3-5.1-6.4-5.2-3.5-.1-5.9 3.6-6.5 4.7-1.1 1.9-2.1 5.2-.8 9.8 1.2 4 4.3 7.5 8 10-.2.4-.5.8-.7 1.2-2.9 5-10.5 18.2-27.2 23.5-6.5 2.1-13.6 2.7-20.6 1.7-.6-.1-1.1.3-1.1.8-.1.5.3 1.1.8 1.1 2.4.4 4.7.6 7 .6zm40.9-51.3s.1 0 0 0c2.5.1 4.3 3.2 4.8 4.1 2.6 5.1-.3 11.8-2.9 16.6-3.3-2.2-6.1-5.2-7.1-8.8-1.1-4-.3-6.7.6-8.3.3-.6 2.2-3.6 4.6-3.6zm50.2-46.6c1.6 0 2.9.7 3.4 1 4.2 2.6 4.4 9.6 4.5 12.6.1 3.3-.2 6.6-.9 9.7-.5-.1-1-.3-1.5-.5-7.2-2.7-12.7-11.4-11-17.5.2-.7 1.3-4.3 4.2-5.1.5-.1.9-.2 1.3-.2z" fill="#d5e0ea"/><path d="m452.6 342.6c.3.1.6.2 1 .2 1 0 1.9-.6 2.3-1.5l6.5-15.7c-.9-2.1-1.8-4.2-2.8-6.4l-8.4 20.2c-.5 1.2.1 2.7 1.4 3.2z" fill="#1f0d60"/><path d="m399.7 334c.2 0 .4 0 .6-.1l25.3-6.5c1.3-.3 2.1-1.7 1.8-3s-1.7-2.1-3-1.8l-25.3 6.5c-1.3.3-2.1 1.7-1.8 3 .3 1.1 1.3 1.9 2.4 1.9z" fill="#1f0d60"/><path d="m349.5 209.2c.8 0 1.6-.4 2.1-1.1.7-1.2.4-2.7-.8-3.5l-22-14.1c-1.2-.7-2.7-.4-3.5.8-.7 1.2-.4 2.7.8 3.5l22 14.1c.5.2 1 .3 1.4.3z" fill="#1f0d60"/><path d="m358.9 318.6c.7 1.5 1.5 3.1 2.2 4.6l7.3-1.9c1.3-.3 2.1-1.7 1.8-3-.4-1.3-1.7-2.1-3-1.8z" fill="#1f0d60"/><path d="m323.7 245.8c.7 1.5 1.5 3.1 2.2 4.6l20-5.2c1.3-.3 2.1-1.7 1.8-3-.4-1.3-1.7-2.1-3-1.8z" fill="#1f0d60"/><path d="m388.3 298.7c.8 0 1.6-.4 2.1-1.1.8-1.1.5-2.7-.6-3.5l-21.5-14.8c-1.1-.8-2.7-.5-3.5.6s-.5 2.7.6 3.5l21.5 14.8c.4.4.9.5 1.4.5z" fill="#1f0d60"/><path d="m290.7 161.4c5 5.1 10 10.3 15 15.4.3.3.7.5 1.1.6.8.2 1.8 0 2.4-.6 1-1 1-2.6 0-3.5l-13.4-13.4c-.7.1-4.5 1.2-5.1 1.5z" fill="#1f0d60"/><path d="m387.8 245.3c1.3 0 2.4-1.1 2.5-2.4l.9-26.1c0-1.4-1-2.5-2.4-2.6-1.4 0-2.5 1-2.6 2.4l-.9 26.1c0 1.4 1 2.6 2.5 2.6-.1 0 0 0 0 0z" fill="#1f0d60"/><path d="m425 277.9c.2 0 .4 0 .5-.1 1.3-.3 2.2-1.6 1.9-3l-5.6-25.5c-.3-1.3-1.6-2.2-3-1.9-1.3.3-2.2 1.6-1.9 3l5.6 25.5c.4 1.2 1.4 2 2.5 2z" fill="#1f0d60"/><path d="m378.5 187.4c.5.5 1.1.7 1.7.7.7 0 1.3-.3 1.8-.8l12.2-13.2c-.8-1.6-1.5-3.2-2.3-4.9l-13.5 14.6c-1 1.1-.9 2.7.1 3.6z" fill="#1f0d60"/><path d="m404.8 376 9.6 12c1.4-1 2.7-1.9 4.1-2.9l-9.8-12.2c-.9-1.1-2.4-1.2-3.5-.4-1.1.9-1.2 2.4-.4 3.5z" fill="#1f0d60"/><path d="m279.8 100.6c6.9-6.6 17.9-6.3 24.5.7 0 0 6.9-8.3-7.1-34.9-12.8-24.2 23.3-24.6 30.1-36.1 4.7 2 9 4.5 12.7 7.2 2.8 2 9.1 6.3 15.1 13.9 1.8 2.3 3.8 5.1 5.7 8.3 10.7 17.7 20.4 46.1 5 63.2-3.1 3.4-7 6.2-11.6 8.3l4.6 17.3c3.6 13.4-4.5 27.3-17.9 30.9s-27.3-4.5-30.9-17.9l-8.5-32c-.3-1.2-.5-2.3-.7-3.5-4.2-2.2-8.1-4.7-11.6-7.5-1.9-1.6-3.9-3.4-5.8-5.3-2.4-2.4-4.7-5.1-6.8-8 .7-1.8 1.8-3.3 3.2-4.6z" fill="#ff0f97"/><path d="m355.2 91.3c.1 0 .2 0 .3-.1l10.7-8.2c.1-.1.2-.3.2-.4s-.1-.3-.2-.4l-21.4-14.4c-.2-.2-.5-.1-.7.1s-.1.5.1.7l20.8 14-10.2 7.7c-.2.2-.3.5-.1.7s.3.3.5.3z"/><ellipse cx="351" cy="53.3" rx="9" ry="2.3" transform="matrix(.9133 -.4072 .4072 .9133 8.7151 147.5462)"/><ellipse cx="323.8" cy="65.4" rx="10.1" ry="2.3" transform="matrix(.9133 -.4072 .4072 .9133 1.4195 137.5133)"/><path d="m345.7 131.8c3 0 6-.3 9-.8.3 0 .5-.3.4-.6s-.3-.5-.6-.4c-3.1.6-6.2.8-9.3.8-6.5-.1-12.9-1.4-19.1-4-.3-.1-.5 0-.7.3s0 .5.3.7c6.3 2.6 12.8 4 19.5 4z"/><path d="m274.6 110.8c.5-3.8 2.3-7.4 5.2-10.2 6.9-6.6 17.9-6.3 24.5.7 6.6 6.9 6.3 17.9-.7 24.4-6.9 6.6-17.9 6.3-24.4-.7-3.8-3.9-5.3-9.2-4.6-14.2z" fill="#ff0f97"/><path d="m300.3 118.1c.2 0 .4-.2.5-.4.1-.3-.1-.5-.4-.6-1.8-.4-3.3-1.7-3.8-3.4-.6-1.7-.2-3.7 1.1-5 .1-.1.2-.3.1-.5 0-.2-.2-.3-.3-.3l-14.4-4.8c-.3-.1-.5.1-.6.3-.1.3.1.5.3.6l13.7 4.6c-1.1 1.6-1.4 3.6-.8 5.4.6 2.1 2.4 3.7 4.6 4.1-.1 0 0 0 0 0z"/><path d="m262.2 37.9c0-26.4 29.4-20.2 29.4-20.2 9.5-17.5 32.4-8.7 36.2 4.8 1.5-.2 15.2-1.6 25.4 8.8 11.3 11.7 7.8 27.3 7.5 28.3-1.9-3.1-3.8-5.9-5.7-8.3-6-7.6-12.3-11.9-15.1-13.9-3.7-2.7-8-5.2-12.7-7.2-6.8 11.5-42.9 11.9-30.1 36.1 14 26.6 7.1 34.9 7.1 34.9-6.6-6.9-17.5-7.2-24.5-.7-1.4 1.3-2.5 2.8-3.4 4.4-1 1.8-1.6 3.8-1.9 5.8-27.3-9.7-18.7-35.7-18.7-35.7-16.4-23.9 6.5-37.1 6.5-37.1z"/><circle cx="352.5" cy="63.3" r="2.7"/><circle cx="331" cy="73.9" r="2.7"/><path d="m348 107.5c5.7 0 10.1-4.9 10.1-4.9.2-.2.2-.5 0-.7s-.5-.2-.7 0c0 0-1.9 2.1-4.7 3.5-3.7 1.8-7.3 1.4-10.6-1-.2-.2-.5-.1-.7.1s-.1.5.1.7c2.2 1.7 4.5 2.3 6.5 2.3z"/><path d="m685.3 687.7c.8 7.6 1.6 15.2 2.4 22.9.2 1.5.3 3 .5 4.5 1.9-.5 4-1.1 6.2-1.7.3-.1.6-.2 1-.3 2.4-.6 4.9-1.3 7.5-2 .3-.1.7-.2 1-.3 2.4-.7 4.9-1.3 7.5-2 .3-.1.7-.2 1-.3 1.7-.5 3.4-.9 5.1-1.4.4-.1.8-.2 1.2-.3 3.1-.8 6.2-1.6 9.1-2.4.3-.1.7-.2 1-.3 2.2-.6 4.3-1.1 6.3-1.6.3-.1.6-.2 1-.2 2.6-.7 5.1-1.3 7.4-1.9.3-.1.7-.2 1-.2.9-.2 1.8-.5 2.7-.7-.9-4.2-3.9-20.2-6.1-31.9-1.4.5-2.7 1-4.1 1.5-.4.1-.7.3-1.1.4-3 1-5.9 2.1-8.9 3.2-.3.1-.6.2-1 .3-1.4.5-2.7 1-4.1 1.5-.5.2-1 .4-1.5.5-.3.1-.7.2-1 .4-2.5.9-5 1.8-7.5 2.7-.3.1-.7.2-1 .4-2.3.8-4.6 1.7-7 2.5-.3.1-.7.2-1 .4-2.1.8-4.2 1.5-6.3 2.3-.3.1-.6.2-1 .3-2.4.9-4.9 1.8-7.3 2.6-.3.1-.6.2-1 .3-.7.4-1.4.6-2 .8z" fill="#d5e0ea"/><path d="m445.3 684.6 5.6 2.3 1 .4 6.8 2.8 1 .4 5.5 2.2.9.4 5 2.1 1 .4 5.5 2.2.9.4 10.6 4.3.9.4 6.7 2.8.9.4 2.8 1.2c1.7-2.9 3.4-5.7 5-8.6-1.9-1.5-3.7-3.1-5.6-4.6-.3-.2-.5-.5-.8-.7-1.3-1.1-2.7-2.2-4-3.3-.3-.2-.5-.4-.8-.6-1.5-1.2-2.9-2.4-4.4-3.6-.3-.2-.6-.5-.8-.7-2.1-1.7-4.1-3.4-6.2-5.1-.3-.2-.6-.5-.8-.7-2.4-1.9-4.7-3.9-7.1-5.8-.3-.2-.5-.4-.8-.6-1.7-1.4-3.4-2.8-5.1-4.2-.3-.2-.6-.5-.9-.7-2.3-1.9-4.6-3.8-6.9-5.7-.3-.2-.6-.5-.9-.8-.5-.4-1-.9-1.6-1.3-4.3 7.8-8.9 16-13.4 24.3z" fill="#d5e0ea"/><g fill="#ff0f97"><path d="m736.8 683.8c.5 1 1 1.7 1.5 2.5.4.6.8 1.2 1.3 2 2.1 3.5 3.4 7.7 3.8 12.4.3-.1.7-.2 1-.2-.5-4.8-1.8-9-3.9-12.6-.5-.9-1-1.5-1.3-2.1-.5-.7-1-1.4-1.4-2.3-1.9-3.9-2.2-8.6-.8-14.1-.4.1-.7.3-1.1.4-1.4 5.3-1.1 10 .9 14z"/><path d="m726 673.2c1.8 2.7 2.9 5.4 3.5 8.2.2.9.2 1.8.3 2.7.2 1.8.3 3.6 1.2 6.3.5 1.7 1 2.7 1.5 3.6.3.7.7 1.3 1 2.3.8 2 1.3 4.2 1.5 6.5.3-.1.6-.2 1-.2-.2-2.4-.7-4.6-1.5-6.6-.4-1-.7-1.7-1.1-2.4-.5-1-.9-1.8-1.5-3.5-.8-2.6-1-4.3-1.2-6.1-.1-.9-.2-1.8-.4-2.8-.5-2.8-1.7-5.6-3.5-8.3-.2 0-.5.1-.8.3z"/><path d="m704.5 691.4c.5 1 1 1.7 1.5 2.4.4.6.8 1.2 1.3 2 2.2 3.7 3.5 8.1 3.9 13.1.3-.1.7-.2 1-.3-.4-5.1-1.8-9.5-4-13.3-.5-.9-1-1.5-1.4-2.1-.5-.7-.9-1.4-1.4-2.3-1.4-2.9-1.9-6.2-1.6-9.9-.3.1-.7.2-1 .4-.3 3.8.3 7.1 1.7 10z"/><path d="m695.5 684.1c.8 1.6 1.3 3.3 1.6 4.9.2.9.2 1.8.3 2.7.2 1.8.3 3.6 1.2 6.3.5 1.7 1 2.7 1.5 3.6.3.7.7 1.3 1 2.3.9 2.3 1.4 4.7 1.5 7.3.3-.1.7-.2 1-.3-.2-2.7-.7-5.2-1.6-7.5-.4-1-.7-1.7-1.1-2.4-.5-1-.9-1.9-1.5-3.5-.8-2.5-1-4.3-1.2-6.1-.1-.9-.2-1.8-.3-2.8-.3-1.7-.9-3.4-1.6-5.1-.1.3-.4.5-.8.6z"/><path d="m687.3 687c.7 1.5 1.1 3 1.4 4.5.2 1 .3 1.8.3 2.7.2 1.8.4 3.6 1.2 6.3.5 1.7 1 2.7 1.5 3.6.3.7.7 1.3 1 2.3.8 2.2 1.4 4.6 1.5 7.1.3-.1.6-.2 1-.3-.2-2.6-.7-5-1.6-7.2-.4-1-.7-1.7-1.1-2.4-.5-1-.9-1.9-1.5-3.5-.8-2.5-1-4.3-1.2-6.1-.1-.9-.2-1.8-.3-2.8-.3-1.6-.8-3.1-1.4-4.6-.2.2-.5.3-.8.4z"/><path d="m714.2 684.4c1.2 3.5 1.1 7 1 9.4s-.3 4-.6 5.3c-.3 1.9-.5 3.1.1 4.8.5 1.3 1.4 2.4 2.6 3.4.4-.1.8-.2 1.2-.3-1.4-1-2.3-2.2-2.8-3.5-.6-1.4-.4-2.5-.1-4.3.2-1.3.5-3 .6-5.5.1-2.4.2-6-1.1-9.7-.7-2.1-1.8-4.1-3.3-5.9-.3.1-.7.2-1 .4 1.5 1.9 2.7 3.9 3.4 5.9z"/><path d="m721.7 686.5c-.5 2-1 3.8 0 6 .7 1.5 1.6 2.2 2.5 2.9.7.5 1.5 1.1 2.2 2.2 1.2 1.8 1.6 4.2 1.3 7 .3-.1.7-.2 1-.3.2-3-.3-5.4-1.5-7.3-.8-1.2-1.7-1.9-2.5-2.5-.9-.6-1.6-1.2-2.2-2.5-.8-1.9-.4-3.5.1-5.4.4-1.5.8-3.1.7-5.1-.2-2.2-1.2-4.4-2.9-6.5-.3.1-.7.2-1 .4 1.8 2 2.7 4.1 2.9 6.2.2 1.9-.2 3.4-.6 4.9z"/><path d="m496.8 705.6.9.4c.8-1.9 1.2-3.8 1.5-5.8.1-.9.1-1.6.2-2.2 0-.8.1-1.5.2-2.5.1-.5.2-1.1.4-1.6-.3-.2-.5-.5-.8-.7-.3.7-.5 1.4-.6 2.1-.2 1-.2 1.8-.3 2.6 0 .6 0 1.3-.1 2.2-.2 1.8-.7 3.7-1.4 5.5z"/><path d="m489.1 702.4.9.4c.3-.7.6-1.4.8-2.1.3-.9.4-1.6.5-2.3.2-.9.3-1.8.9-3.2.8-2.2 1.7-3.5 2.5-4.7.2-.2.3-.4.4-.6-.3-.2-.5-.4-.8-.6-.2.2-.3.5-.5.7-.9 1.3-1.8 2.6-2.7 4.9-.5 1.5-.7 2.5-.9 3.4-.1.7-.2 1.3-.5 2.2 0 .6-.3 1.3-.6 1.9z"/><path d="m465.1 692.6.9.4c1-2.8 2.1-5.7 3.2-8.6 1.5-3.9 1.9-4.9 2.4-5.8 1-1.9 2.1-3.7 3.6-5.4-.3-.2-.5-.4-.8-.6-1.5 1.8-2.7 3.6-3.7 5.6-.5 1-.9 2-2.4 5.9-1.1 2.9-2.2 5.7-3.2 8.5z"/><path d="m458.7 690 1 .4c1.4-1.8 2.3-3.8 2.5-5.9.1-1.3 0-2.4-.2-3.4-.2-1.3-.4-2.4.2-3.8.6-1.5 1.5-2.1 2.6-2.8.8-.5 1.7-1.1 2.5-2 1-1.1 1.6-2.4 2-4-.3-.2-.6-.5-.9-.7-.3 1.6-1 3-1.9 4.1-.7.8-1.5 1.4-2.3 1.9-1.2.8-2.3 1.5-3 3.3-.7 1.6-.5 3-.3 4.3.1 1 .3 1.9.2 3.2-.2 1.8-1 3.7-2.4 5.4z"/><path d="m450.8 686.8 1 .4c1.9-1.8 3.1-3.7 3.5-5.9.2-1.1.1-1.9.1-2.7-.1-1-.1-1.9.2-3.4.5-2 1.4-3.2 2.3-4.4.5-.7 1.1-1.4 1.6-2.3 1-1.9 1.7-4.1 2-6.5-.3-.2-.6-.5-.9-.8-.2 2.6-.9 4.8-2 6.8-.5.8-1 1.5-1.5 2.2-1 1.3-1.9 2.5-2.4 4.8-.4 1.6-.3 2.7-.3 3.7 0 .8.1 1.5-.1 2.5-.4 2-1.5 3.9-3.5 5.6z"/><path d="m471.1 695.1 1 .4c0-.7 0-1.4.2-2 .4-1.3 1.1-1.8 2.3-2.8.9-.7 2.1-1.7 3.5-3.2s3.6-3.9 4.7-7.1c.1-.2.1-.4.2-.6-.3-.2-.6-.5-.8-.7-.1.3-.2.6-.3.9-1.1 3.1-3.2 5.3-4.5 6.8-1.4 1.5-2.5 2.4-3.4 3.1-1.3 1-2.2 1.7-2.7 3.3-.1.6-.2 1.2-.2 1.9z"/><path d="m477.6 697.7.9.4c.4-2.1 1.3-3.5 2.5-4.3.7-.4 1.3-.5 2-.6.8-.2 1.8-.3 3-1.1 2.4-1.5 3.4-3.9 4.1-6.4-.3-.2-.6-.5-.8-.7-.7 2.5-1.6 4.8-3.8 6.3-1 .7-1.8.8-2.6.9-.7.1-1.5.3-2.3.8-1.6.8-2.6 2.4-3 4.7z"/></g><path d="m688.1 715.1c1 9.4 2 18.8 3 28.1 10.6 5.3 21.6 10.6 33 15.8 17.6 8 34.6 15 51.1 21.4l49.7 20.8c.6-2.4 1.2-5.4 1.6-8.6 0 0 .3-2.9.4-5.5.1-6.8-3.6-16.5-5.8-20.3-9.2-16.3-51.5-36.3-68.9-59.2-1.7-2.3-3.4-4.8-5-7.8-3.9-5.9-11.2-8.5-17.9-6.6-6.3 1.8-10.9 7.5-11.4 14.1-10 2.6-19.9 5.2-29.8 7.8z" fill="#1f0d60"/><path d="m826.8 788.3c.2 0 .4-.1.5-.3.1-.3 0-.5-.3-.7l-137-56.7c-.3-.1-.5 0-.7.3s0 .5.3.7l137 56.7z" fill="#d5e0ea"/><path d="m756.2 740.4c.1 0 .2 0 .3-.1l15.4-9.9c.2-.1.3-.5.1-.7-.1-.2-.5-.3-.7-.2l-15.4 9.9c-.2.1-.3.5-.1.7 0 .3.2.3.4.3z" fill="#d5e0ea"/><path d="m749.4 732.5h.2l16.7-7.1c.3-.1.4-.4.3-.7s-.4-.4-.7-.3l-16.7 7.1c-.3.1-.4.4-.3.7.1.1.3.3.5.3z" fill="#d5e0ea"/><path d="m429.2 713.9c6 10.6 12.5 21.6 19.6 32.7 11 17.4 22.2 33.4 33.1 48 18.5 6.9 37 13.9 55.5 20.9.5-2.8.9-6.9.4-11.8-.8-7.8-3.6-13.6-5.3-16.7-10.2-19.3-19.9-24.5-28.2-42-2.6-5.6-6.6-14.5-6.2-25.7.2-4.4 1-8.5 2.3-12.3-.8-4.9-4.3-9-8.9-10.5-6.3-2.1-11.5 1.6-12 2-11.5-4.7-23-9.4-34.4-14-.1.2-.5 1-.7 1.2-5 9.5-10.1 18.9-15.2 28.2z" fill="#1f0d60"/><path d="m537.8 804.3c.2 0 .4-.1.5-.3.1-.3 0-.5-.3-.6l-47.6-18.3-55.1-81.9c-.2-.2-.5-.3-.7-.1s-.3.5-.1.7l55.2 82c.1.1.1.2.2.2l47.7 18.4c.1-.1.2-.1.2-.1z" fill="#d5e0ea"/><path d="m502.3 746c.3 0 .5-.2.5-.5s-.2-.5-.5-.5l-20.1-.6c-.2 0-.5.2-.5.5s.2.5.5.5z" fill="#d5e0ea"/><path d="m499.5 740c.2 0 .4-.2.5-.4.1-.3-.1-.5-.4-.6l-19.6-4.5c-.3-.1-.5.1-.6.4s.1.5.4.6l19.6 4.5z" fill="#d5e0ea"/><path d="m392.1 460.6c11.8 0 23.6 0 35.4-.1-9.9-20.4-19.7-40.8-29.6-61.2 19.5-12.9 39.3-27.2 59.2-42.9 4.7-3.7 9.2-7.3 13.8-11 10 2 24 5 40.6 9.1 17.2 4.2 28.4 6.9 40.6 10.7 24.3 7.5 56.1 17.6 87.5 42.5 2.3 1.8 12.5 10 23.9 22.3 21.6 23.3 38.5 51.7 62.5 122.4 9.8 28.6 21.3 65.9 32 110.3-6.6 2-12.3 3.8-16.9 5.2-2 .6-2.5.8-2.9.9-3.7 1.2-6.6 2.5-16.2 5.9-12.2 4.4-24.4 8.8-36.6 13.1-5.8 2.1-11.7 4.2-17.5 6.3l-7.4 2.6c-12.6-52.5-25.3-104.9-37.9-157.4-7.5 19.7-19.5 40-34.3 63.7-25.8 41.3-49.8 76.6-70.4 105.5-3.6-3-7.2-5.9-10.8-8.9-.5-.4-1-.8-1.4-1.2-15.5-12.8-31-25.7-46.6-38.5-9.6-7.9-19.2-15.9-28.8-23.8 35.5-44.1 71.1-88.2 106.6-132.3-51.1-16.2-91.8-28-119.5-35.8-10.2-2.8-18.4-5.1-25.3-7.4z" fill="#00dc99"/><path d="m618 550.5c.2 0 .4-.1.5-.3 7.9-17.1 10.7-35.2 8.2-52.3-4.2-28.2-21.4-45.9-35.2-60.1-18.1-18.6-40.1-32.6-65.6-41.7-.3-.1-.5 0-.6.3s0 .5.3.6c25.3 9 47.3 23 65.2 41.5 13.7 14.1 30.8 31.7 34.9 59.6 3.2 21.5-2.7 40-8.1 51.8-.1.2 0 .5.2.7.1-.1.2-.1.2-.1z" fill="#1f0d60"/><path d="m481.5 679.1c.2 0 .4-.1.5-.3l83-190.9c.1-.3 0-.5-.3-.7l-157-68.7c-.3-.1-.5 0-.7.3-.1.3 0 .5.3.7l156.6 68.5-82.8 190.4c-.1.3 0 .5.3.7 0-.1.1 0 .1 0z" fill="#1f0d60"/><path d="m708.4 680c.1 0 .2 0 .2-.1.2-.1.3-.4.2-.7l-81.7-161c-.1-.2-.4-.3-.7-.2-.2.1-.3.4-.2.7l81.7 161c.2.2.3.3.5.3z" fill="#1f0d60"/><path d="m158.4 337.3c62.9-120.7 83.1-144.9 110.5-163.6 3.4-2.3 8.7-5.9 15.2-9.9 27.9 57.7 55.8 115.5 83.7 173.2 10 20.7 20 41.4 30 62.1 9.9 20.4 19.7 40.8 29.6 61.2-11.8 0-23.6.1-35.4.1-4.7 0-9.4 0-14 0-17.8 0-35.6 0-53.4-.1-16.5-60.9-33-121.8-49.4-182.7-34.7 52.8-69.4 105.5-104.1 158.3-19.3-3.1-38.6-6.3-57.9-9.4 10.3-20.9 25.8-51.9 45.2-89.2z" fill="#892bff"/><path d="m381.1 145.1c.3 0 .5.1.8.1.3.1.7.1 1.1.2 1.2.2 2.5.4 4 .7.5.1 1 .2 1.5.3s1.1.2 1.6.4c59.6 13.4 81.4 62 101.9 58.5h.1c.2 0 .5-.1.7-.1 11.4-2.7 24.5-22.1 26.6-105.3h.1c15.5-3.6 31-7.1 46.4-10.7h.2c9.2 50.2 6.2 90.4 2.3 116.1-5.6 36.6-10.7 70.1-34.7 81.6-13 6.2-27.2 4-42.1-1.1-7.2-2.5-14.5-5.5-21.9-8.7-1.4-.6-2.8-1.2-4.2-1.9-.4-.2-.9-.4-1.3-.6 2 3.4 4.1 6.9 6.2 10.5 4.2 7.1 8.6 14.5 12.5 21.2 9.5 16.1 19 32.1 28.5 48.2-1.9-.5-3.8-.9-5.7-1.4-11-2.6-22.6-5.2-34.9-7.7-12.7-29.7-25.8-59.8-39.5-90.2-1.7-3.7-3.3-7.4-5-11.1-14.5-32-29.1-63.4-43.7-94.1l-2.5-5c.3 0 .6.1 1 .1z" fill="#892bff"/><path d="m470.2 285.1c.1 0 .2 0 .2-.1.2-.1.3-.4.2-.7l-28.2-51.1c-.1-.2-.4-.3-.7-.2-.2.1-.3.4-.2.7l28.2 51.1c.1.2.3.3.5.3z" fill="#1f0d60"/><path d="m550.7 74.1c2.2.6 4.9-.9 6.3-3.7 2.5-6.7 5-13.4 7.4-20.2.2-.5.5-1 .8-1.5-3.6 4.5-7.3 9.4-11 14.5-2.1 3-4.2 6-6.1 8.9.4.7 1.3 1.6 2.6 2zm-30.6-13.6c2.1-3.4 6.6-6 15.7-11.1 7.6-4.3 14.3-7.2 19-9.1 10.1-4.5 20.2-9 30.4-13.4 3.2-1.3 6.9.2 8.2 3.4s-.2 6.9-3.5 8.2l-18.3 7.5c.4.1.9.2 1.3.3 3.4 1.3 5.1 5.1 3.8 8.5-1.3 5.7-2.9 11.7-4.8 18-1.8 5.8-3.7 11.1-5.7 16.1 0 0-.1 0-.2 0-15.5 3.6-31 7.1-46.4 10.7-.2-1.9-.4-4.9-.6-8.5-1.7-25.4.1-29 1.1-30.6z" fill="#ff0f97"/><path d="m61.1 451.3c-.4-.7-.6-1.4-.7-2.2-.5-3.6 2-6.9 5.6-7.4h.2c.4-3.2 3.2-5.7 6.5-5.7h35.6l4.9-9.3 57.9 9.4c-2.3 5.8-3.7 10.6-4.5 13.9-1 4.1-1.6 7.4-4.3 10.7-1.7 2-21.4 17.6-29.6 24.4-2.7 2.4-6.9 2.1-9.2-.5-2.4-2.7-2.2-6.9.5-9.2l16.4-14.6c-3.8 0-7.7 0-11.5 0l-50.6 15.9c-3.4 1.1-7.1-.8-8.2-4.3s.8-7.1 4.3-8.2l10.8-3.4-19.5 2.6c-3.6.5-6.9-2-7.4-5.6-.4-2.7.8-5.2 2.8-6.5z" fill="#ff0f97"/><path d="m85.1 461.1h.2l16.7-5.6c.3-.1.4-.4.3-.6-.1-.3-.4-.4-.6-.3l-16.7 5.6c-.3.1-.4.4-.3.6 0 .2.2.3.4.3z"/><path d="m61.1 451.8s.1 0 0 0l39.4-5.9c.3 0 .5-.3.4-.6 0-.3-.3-.5-.6-.4l-39.4 5.9c-.3 0-.5.3-.4.6.2.2.4.4.6.4z"/><path d="m66.2 442.1s.1 0 0 0l32.9-2.2c.3 0 .5-.3.5-.5 0-.3-.3-.5-.5-.5l-32.9 2.2c-.3 0-.5.3-.5.5.1.3.3.5.5.5z"/></svg>