<svg fill="none" height="730" viewBox="0 0 834 730" width="834" xmlns="http://www.w3.org/2000/svg" xmlns:xlink="http://www.w3.org/1999/xlink"><mask id="a" height="730" maskUnits="userSpaceOnUse" width="806" x="19" y="0"><path d="m240.578 546.874c-247.49989-179.501-239.00065-369-136.501-444.5 102.5-75.4997 316.501-69.4999 428.5-22.9999 111.999 46.4999 321.998 189.4999 252.501 423.9999s-297 223-544.5 43.5z" fill="#c4c4c4"/></mask><g clip-rule="evenodd" fill-rule="evenodd" mask="url(#a)"><path d="m789.809 583.16c30.466-154.601 60.13-531.7499-27.427-544.3146-87.557-12.5646-589.038 472.6006-529.03 585.0186 60.008 112.419 519.681 145.923 556.457-40.704z" fill="#f4ce45"/><path d="m103.733 110.523c10.528 141.008 594.563 224.793 659.512 335.247 64.95 110.455 99.421-401.5554.002-482.0367-99.42-80.4813-672.2228-23.4286-659.514 146.7897z" fill="#f64942"/><path d="m126.228 141.605c102.864 163.211 234.761 124.33 346.892 343.037 151.485 266.86-435.0468 343.857-434.0014 83.028s-37.06309-623.0844 87.1094-426.065z" fill="#ef90a4"/><path d="m30.3316 106.321c8.8561 181.746 172.9024 282.054 269.9854 273.775 305.879-26.087 318.538-365.7136 270.76-417.8617-47.779-52.1481-551.436-75.3083-540.7454 144.0867z" fill="#5b95bf"/></g><path d="m77 51c0 8.2843-6.7157 15-15 15s-15-6.7157-15-15 6.7157-15 15-15 15 6.7157 15 15z" fill="#5b95bf"/><circle cx="809" cy="134" fill="#f64942" r="25"/><circle cx="576.5" cy="716.5" fill="#f4ce45" r="12.5"/><circle cx="15" cy="372" fill="#ef90a4" r="15"/></svg>