<svg fill="none" height="418" viewBox="0 0 644 418" width="644" xmlns="http://www.w3.org/2000/svg" xmlns:xlink="http://www.w3.org/1999/xlink"><filter id="a" color-interpolation-filters="sRGB" filterUnits="userSpaceOnUse" height="73.1661" width="236.727" x=".865633" y="199.327"><feFlood flood-opacity="0" result="BackgroundImageFix"/><feColorMatrix in="SourceAlpha" type="matrix" values="0 0 0 0 0 0 0 0 0 0 0 0 0 0 0 0 0 0 127 0"/><feOffset dy="1.06718"/><feGaussianBlur stdDeviation="1.06718"/><feColorMatrix type="matrix" values="0 0 0 0 0 0 0 0 0 0 0 0 0 0 0 0 0 0 0.0796547 0"/><feBlend in2="BackgroundImageFix" mode="normal" result="effect1_dropShadow"/><feBlend in="SourceGraphic" in2="effect1_dropShadow" mode="normal" result="shape"/></filter><filter id="b" color-interpolation-filters="sRGB" filterUnits="userSpaceOnUse" height="47.5537" width="122.752" x="267.875" y="53.4387"><feFlood flood-opacity="0" result="BackgroundImageFix"/><feColorMatrix in="SourceAlpha" type="matrix" values="0 0 0 0 0 0 0 0 0 0 0 0 0 0 0 0 0 0 127 0"/><feOffset dy="1.06718"/><feGaussianBlur stdDeviation="1.06718"/><feColorMatrix type="matrix" values="0 0 0 0 0 0 0 0 0 0 0 0 0 0 0 0 0 0 0.0796547 0"/><feBlend in2="BackgroundImageFix" mode="normal" result="effect1_dropShadow"/><feBlend in="SourceGraphic" in2="effect1_dropShadow" mode="normal" result="shape"/></filter><filter id="c" color-interpolation-filters="sRGB" filterUnits="userSpaceOnUse" height="47.5537" width="216.237" x="420.269" y=".933305"><feFlood flood-opacity="0" result="BackgroundImageFix"/><feColorMatrix in="SourceAlpha" type="matrix" values="0 0 0 0 0 0 0 0 0 0 0 0 0 0 0 0 0 0 127 0"/><feOffset dy="1.06718"/><feGaussianBlur stdDeviation="1.06718"/><feColorMatrix type="matrix" values="0 0 0 0 0 0 0 0 0 0 0 0 0 0 0 0 0 0 0.0796547 0"/><feBlend in2="BackgroundImageFix" mode="normal" result="effect1_dropShadow"/><feBlend in="SourceGraphic" in2="effect1_dropShadow" mode="normal" result="shape"/></filter><filter id="d" color-interpolation-filters="sRGB" filterUnits="userSpaceOnUse" height="47.5537" width="190.625" x="420.269" y="53.4387"><feFlood flood-opacity="0" result="BackgroundImageFix"/><feColorMatrix in="SourceAlpha" type="matrix" values="0 0 0 0 0 0 0 0 0 0 0 0 0 0 0 0 0 0 127 0"/><feOffset dy="1.06718"/><feGaussianBlur stdDeviation="1.06718"/><feColorMatrix type="matrix" values="0 0 0 0 0 0 0 0 0 0 0 0 0 0 0 0 0 0 0.0796547 0"/><feBlend in2="BackgroundImageFix" mode="normal" result="effect1_dropShadow"/><feBlend in="SourceGraphic" in2="effect1_dropShadow" mode="normal" result="shape"/></filter><filter id="e" color-interpolation-filters="sRGB" filterUnits="userSpaceOnUse" height="47.5537" width="190.625" x="420.269" y="108.505"><feFlood flood-opacity="0" result="BackgroundImageFix"/><feColorMatrix in="SourceAlpha" type="matrix" values="0 0 0 0 0 0 0 0 0 0 0 0 0 0 0 0 0 0 127 0"/><feOffset dy="1.06718"/><feGaussianBlur stdDeviation="1.06718"/><feColorMatrix type="matrix" values="0 0 0 0 0 0 0 0 0 0 0 0 0 0 0 0 0 0 0.0796547 0"/><feBlend in2="BackgroundImageFix" mode="normal" result="effect1_dropShadow"/><feBlend in="SourceGraphic" in2="effect1_dropShadow" mode="normal" result="shape"/></filter><filter id="f" color-interpolation-filters="sRGB" filterUnits="userSpaceOnUse" height="65.4824" width="190.625" x="429.234" y="176.378"><feFlood flood-opacity="0" result="BackgroundImageFix"/><feColorMatrix in="SourceAlpha" type="matrix" values="0 0 0 0 0 0 0 0 0 0 0 0 0 0 0 0 0 0 127 0"/><feOffset dy="1.06718"/><feGaussianBlur stdDeviation="1.06718"/><feColorMatrix type="matrix" values="0 0 0 0 0 0 0 0 0 0 0 0 0 0 0 0 0 0 0.0796547 0"/><feBlend in2="BackgroundImageFix" mode="normal" result="effect1_dropShadow"/><feBlend in="SourceGraphic" in2="effect1_dropShadow" mode="normal" result="shape"/></filter><filter id="g" color-interpolation-filters="sRGB" filterUnits="userSpaceOnUse" height="47.5537" width="216.237" x="429.234" y="248.093"><feFlood flood-opacity="0" result="BackgroundImageFix"/><feColorMatrix in="SourceAlpha" type="matrix" values="0 0 0 0 0 0 0 0 0 0 0 0 0 0 0 0 0 0 127 0"/><feOffset dy="1.06718"/><feGaussianBlur stdDeviation="1.06718"/><feColorMatrix type="matrix" values="0 0 0 0 0 0 0 0 0 0 0 0 0 0 0 0 0 0 0.0796547 0"/><feBlend in2="BackgroundImageFix" mode="normal" result="effect1_dropShadow"/><feBlend in="SourceGraphic" in2="effect1_dropShadow" mode="normal" result="shape"/></filter><filter id="h" color-interpolation-filters="sRGB" filterUnits="userSpaceOnUse" height="47.5537" width="216.237" x="392.095" y="317.247"><feFlood flood-opacity="0" result="BackgroundImageFix"/><feColorMatrix in="SourceAlpha" type="matrix" values="0 0 0 0 0 0 0 0 0 0 0 0 0 0 0 0 0 0 127 0"/><feOffset dy="1.06718"/><feGaussianBlur stdDeviation="1.06718"/><feColorMatrix type="matrix" values="0 0 0 0 0 0 0 0 0 0 0 0 0 0 0 0 0 0 0.0796547 0"/><feBlend in2="BackgroundImageFix" mode="normal" result="effect1_dropShadow"/><feBlend in="SourceGraphic" in2="effect1_dropShadow" mode="normal" result="shape"/></filter><filter id="i" color-interpolation-filters="sRGB" filterUnits="userSpaceOnUse" height="47.5537" width="216.237" x="392.095" y="369.752"><feFlood flood-opacity="0" result="BackgroundImageFix"/><feColorMatrix in="SourceAlpha" type="matrix" values="0 0 0 0 0 0 0 0 0 0 0 0 0 0 0 0 0 0 127 0"/><feOffset dy="1.06718"/><feGaussianBlur stdDeviation="1.06718"/><feColorMatrix type="matrix" values="0 0 0 0 0 0 0 0 0 0 0 0 0 0 0 0 0 0 0.0796547 0"/><feBlend in2="BackgroundImageFix" mode="normal" result="effect1_dropShadow"/><feBlend in="SourceGraphic" in2="effect1_dropShadow" mode="normal" result="shape"/></filter><filter id="j" color-interpolation-filters="sRGB" filterUnits="userSpaceOnUse" height="47.5537" width="130.435" x="267.875" y="212.236"><feFlood flood-opacity="0" result="BackgroundImageFix"/><feColorMatrix in="SourceAlpha" type="matrix" values="0 0 0 0 0 0 0 0 0 0 0 0 0 0 0 0 0 0 127 0"/><feOffset dy="1.06718"/><feGaussianBlur stdDeviation="1.06718"/><feColorMatrix type="matrix" values="0 0 0 0 0 0 0 0 0 0 0 0 0 0 0 0 0 0 0.0796547 0"/><feBlend in2="BackgroundImageFix" mode="normal" result="effect1_dropShadow"/><feBlend in="SourceGraphic" in2="effect1_dropShadow" mode="normal" result="shape"/></filter><filter id="k" color-interpolation-filters="sRGB" filterUnits="userSpaceOnUse" height="47.5537" width="94.5781" x="267.875" y="340.298"><feFlood flood-opacity="0" result="BackgroundImageFix"/><feColorMatrix in="SourceAlpha" type="matrix" values="0 0 0 0 0 0 0 0 0 0 0 0 0 0 0 0 0 0 127 0"/><feOffset dy="1.06718"/><feGaussianBlur stdDeviation="1.06718"/><feColorMatrix type="matrix" values="0 0 0 0 0 0 0 0 0 0 0 0 0 0 0 0 0 0 0.0796547 0"/><feBlend in2="BackgroundImageFix" mode="normal" result="effect1_dropShadow"/><feBlend in="SourceGraphic" in2="effect1_dropShadow" mode="normal" result="shape"/></filter><clipPath id="l"><path d="m397.457 177.446h246.519v115.256h-246.519z"/></clipPath><g filter="url(#a)"><rect fill="#fff" height="68.8974" rx="5.73718" width="232.458" x="3" y="200.395"/><rect height="68.1802" rx="5.3786" stroke="#f1f1f1" stroke-width=".717147" width="231.741" x="3.35857" y="200.753"/></g><g filter="url(#b)"><rect fill="#fff" height="43.285" rx="5.73718" width="118.483" x="270.01" y="54.5059"/><rect height="42.5678" rx="5.3786" stroke="#f1f1f1" stroke-width=".717147" width="117.766" x="270.368" y="54.8644"/></g><g filter="url(#c)"><rect fill="#fff" height="43.285" rx="5.73718" width="211.968" x="422.403" y="2.00049"/><rect height="42.5678" rx="5.3786" stroke="#f1f1f1" stroke-width=".717147" width="211.251" x="422.762" y="2.35906"/></g><rect fill="#fff" fill-opacity=".060688" height="15.0601" rx="5.3786" stroke="#ccc" stroke-width=".717147" width="15.0601" x="435.568" y="15.1652"/><path d="m445.608 20.5439-2.936 4.0984c-.123.131-.291.2045-.466.2045s-.342-.0735-.466-.2045l-1.511-1.6029" stroke="#ccc" stroke-linecap="round" stroke-linejoin="round" stroke-width="1.43429"/><rect fill="#ff7c85" height="13.3184" rx="6.65922" width="162.895" x="457.031" y="15.9336"/><g filter="url(#d)"><rect fill="#fff" height="43.285" rx="5.73718" width="186.356" x="422.403" y="54.5059"/><rect height="42.5678" rx="5.3786" stroke="#f1f1f1" stroke-width=".717147" width="185.639" x="422.762" y="54.8644"/></g><rect fill="#fff" fill-opacity=".060688" height="15.0601" rx="5.3786" stroke="#ccc" stroke-width=".717147" width="15.0601" x="435.568" y="67.6706"/><path d="m445.608 73.0493-2.936 4.0984c-.123.1309-.291.2045-.466.2045s-.342-.0736-.466-.2045l-1.511-1.6029" stroke="#ccc" stroke-linecap="round" stroke-linejoin="round" stroke-width="1.43429"/><rect fill="#ffdd59" height="13.3184" rx="6.65922" width="137.282" x="457.031" y="68.439"/><g filter="url(#e)"><rect fill="#fff" height="43.285" rx="5.73718" width="186.356" x="422.403" y="109.573"/><rect height="42.5678" rx="5.3786" stroke="#f1f1f1" stroke-width=".717147" width="185.639" x="422.762" y="109.931"/></g><rect fill="#fff" fill-opacity=".060688" height="15.0601" rx="5.3786" stroke="#ccc" stroke-width=".717147" width="15.0601" x="435.568" y="122.737"/><rect fill="#edacc8" height="13.3184" rx="6.65922" width="137.282" x="457.031" y="123.506"/><g stroke="#575fcf" stroke-width="1.53674"><path d="m406.934 77.7951h15.46" stroke-linecap="square" stroke-linejoin="round"/><path d="m388.492 77.7951h19.142" stroke-linecap="square" stroke-linejoin="round"/><path d="m422.587 22.542h-11.812c-2.121 0-3.841 1.7201-3.841 3.8419v72.2582"/><path d="m422.587 132.194h-11.812c-2.121 0-3.841-1.72-3.841-3.842v-85.064"/></g><path clip-rule="evenodd" d="m406.165 85.8046c4.668 0 8.452-3.7842 8.452-8.4521 0-4.668-3.784-8.4521-8.452-8.4521s-8.452 3.7841-8.452 8.4521c0 4.6679 3.784 8.4521 8.452 8.4521z" fill="#575fcf" fill-rule="evenodd"/><path d="m410.391 77.9562h-3.623-1.207-3.623v-1.2074h3.623 1.207 3.623z" fill="#fff"/><g clip-path="url(#l)"><g filter="url(#f)"><rect fill="#fff" height="61.2136" rx="5.73718" width="186.356" x="431.368" y="177.446"/><rect height="60.4965" rx="5.3786" stroke="#f1f1f1" stroke-width=".717147" width="185.639" x="431.727" y="177.804"/></g><path d="m489.622 215.888v6.39h.958v-6.39h2.399v-.807h-5.756v.807zm3.517 3.79c0-.316.04-.595.121-.837.087-.249.205-.457.353-.625s.319-.296.514-.383c.202-.087.413-.131.635-.131s.43.044.625.131c.202.087.376.215.524.383s.262.376.343.625c.087.242.131.521.131.837s-.044.598-.131.846c-.081.242-.195.447-.343.615-.148.162-.322.286-.524.373-.195.088-.403.131-.625.131s-.433-.043-.635-.131c-.195-.087-.366-.211-.514-.373-.148-.168-.266-.373-.353-.615-.081-.248-.121-.53-.121-.846zm-.907 0c0 .383.054.739.161 1.068.108.329.269.618.484.867.215.242.481.433.796.575.316.134.679.201 1.089.201.417 0 .78-.067 1.089-.201.316-.142.581-.333.796-.575.215-.249.376-.538.484-.867.107-.329.161-.685.161-1.068s-.054-.74-.161-1.069c-.108-.336-.269-.625-.484-.867-.215-.248-.48-.443-.796-.584-.309-.141-.672-.212-1.089-.212-.41 0-.773.071-1.089.212-.315.141-.581.336-.796.584-.215.242-.376.531-.484.867-.107.329-.161.686-.161 1.069zm6.07-2.611v5.211h.857v-3.245c0-.101.024-.226.071-.373.053-.155.134-.303.242-.444.114-.141.258-.262.433-.363.181-.101.397-.151.645-.151.195 0 .353.03.474.091.128.053.228.134.302.242.074.1.125.221.152.363.033.141.05.295.05.463v3.417h.857v-3.245c0-.404.121-.726.363-.968s.574-.363.998-.363c.208 0 .376.03.504.091.134.06.238.144.312.252.074.101.124.221.151.363.027.141.041.292.041.453v3.417h.856v-3.82c0-.269-.043-.497-.131-.685-.08-.195-.198-.353-.353-.474-.147-.121-.329-.209-.544-.262-.208-.061-.443-.091-.705-.091-.343 0-.659.077-.948.232-.282.154-.511.373-.685.655-.108-.323-.293-.551-.555-.685-.262-.135-.554-.202-.877-.202-.732 0-1.293.296-1.683.887h-.02v-.766zm9.219 2.611c0-.316.04-.595.121-.837.087-.249.205-.457.353-.625.147-.168.319-.296.514-.383.201-.087.413-.131.635-.131s.43.044.625.131c.201.087.376.215.524.383s.262.376.343.625c.087.242.131.521.131.837s-.044.598-.131.846c-.081.242-.195.447-.343.615-.148.162-.323.286-.524.373-.195.088-.403.131-.625.131s-.434-.043-.635-.131c-.195-.087-.367-.211-.514-.373-.148-.168-.266-.373-.353-.615-.081-.248-.121-.53-.121-.846zm-.907 0c0 .383.053.739.161 1.068.107.329.269.618.484.867.215.242.48.433.796.575.316.134.679.201 1.089.201.416 0 .779-.067 1.088-.201.316-.142.582-.333.797-.575.215-.249.376-.538.484-.867.107-.329.161-.685.161-1.068s-.054-.74-.161-1.069c-.108-.336-.269-.625-.484-.867-.215-.248-.481-.443-.797-.584-.309-.141-.672-.212-1.088-.212-.41 0-.773.071-1.089.212s-.581.336-.796.584c-.215.242-.377.531-.484.867-.108.329-.161.686-.161 1.069zm6.04-2.611v5.211h.857v-2.318c0-.336.033-.632.1-.887.068-.262.175-.484.323-.665.148-.182.343-.32.585-.414s.534-.141.877-.141v-.907c-.464-.013-.847.081-1.15.282-.302.202-.557.514-.766.938h-.02v-1.099zm3.357 0v5.211h.856v-2.318c0-.336.034-.632.101-.887.067-.262.175-.484.323-.665.148-.182.342-.32.584-.414s.535-.141.877-.141v-.907c-.463-.013-.846.081-1.149.282-.302.202-.558.514-.766.938h-.02v-1.099zm3.834 2.611c0-.316.041-.595.121-.837.088-.249.205-.457.353-.625s.319-.296.514-.383c.202-.087.413-.131.635-.131s.43.044.625.131c.202.087.376.215.524.383s.262.376.343.625c.087.242.131.521.131.837s-.044.598-.131.846c-.081.242-.195.447-.343.615-.148.162-.322.286-.524.373-.195.088-.403.131-.625.131s-.433-.043-.635-.131c-.195-.087-.366-.211-.514-.373-.148-.168-.265-.373-.353-.615-.08-.248-.121-.53-.121-.846zm-.907 0c0 .383.054.739.161 1.068.108.329.269.618.484.867.215.242.481.433.796.575.316.134.679.201 1.089.201.417 0 .78-.067 1.089-.201.316-.142.581-.333.796-.575.215-.249.376-.538.484-.867.107-.329.161-.685.161-1.068s-.054-.74-.161-1.069c-.108-.336-.269-.625-.484-.867-.215-.248-.48-.443-.796-.584-.309-.141-.672-.212-1.089-.212-.41 0-.773.071-1.089.212-.315.141-.581.336-.796.584-.215.242-.376.531-.484.867-.107.329-.161.686-.161 1.069zm11.231 2.6 1.664-5.211h-.887l-1.17 4.264h-.02l-1.089-4.264h-.937l-1.048 4.264h-.02l-1.18-4.264h-.947l1.673 5.211h.927l1.049-4.143h.02l1.058 4.143z" fill="#999"/><path d="m464.664 208.18h20.0801v20.0801h-20.0801z" fill="#d8d8d8" opacity=".01"/><g stroke="#999" stroke-linecap="round" stroke-linejoin="round" stroke-width="1.33868"><path clip-rule="evenodd" d="m468.68 214.874c0-.739.599-1.339 1.338-1.339h9.371c.739 0 1.339.6 1.339 1.339v8.032c0 .739-.6 1.339-1.339 1.339h-9.371c-.739 0-1.338-.6-1.338-1.339z" fill-rule="evenodd"/><path d="m477.382 212.197v1.243"/><path d="m472.026 212.197v1.243"/><path d="m468.68 216.834h12.048"/></g><rect fill="#fff" fill-opacity=".060688" height="15.0601" rx="5.3786" stroke="#ccc" stroke-width=".717147" width="15.0601" x="444.532" y="190.61"/><rect fill="#ffdd59" height="13.3184" rx="6.65922" width="137.282" x="465.996" y="191.379"/><g filter="url(#g)"><rect fill="#fff" height="43.285" rx="5.73718" width="211.968" x="431.368" y="249.16"/><rect height="42.5678" rx="5.3786" stroke="#f1f1f1" stroke-width=".717147" width="211.251" x="431.727" y="249.519"/></g><rect fill="#fff" fill-opacity=".060688" height="15.0601" rx="5.3786" stroke="#ccc" stroke-width=".717147" width="15.0601" x="444.532" y="262.325"/><rect fill="#ff7c85" height="13.3184" rx="6.65922" width="162.895" x="465.996" y="263.094"/><path d="m397.457 235.311h19.142" stroke="#575fcf" stroke-linecap="square" stroke-linejoin="round" stroke-width="1.53674"/><path d="m431.552 209.513h-11.812c-2.122 0-3.842 1.72-3.842 3.842v33.839" stroke="#575fcf" stroke-width="1.53674"/><path d="m431.552 270.501h-11.812c-2.122 0-3.842-1.72-3.842-3.841v-46.646" stroke="#575fcf" stroke-width="1.53674"/><path clip-rule="evenodd" d="m415.13 243.321c4.668 0 8.452-3.784 8.452-8.452s-3.784-8.452-8.452-8.452-8.452 3.784-8.452 8.452 3.784 8.452 8.452 8.452z" fill="#575fcf" fill-rule="evenodd"/><path d="m419.355 235.473h-3.622-1.207-3.623v-1.208h3.623 1.207 3.622z" fill="#fff"/></g><g filter="url(#h)"><rect fill="#fff" height="43.285" rx="5.73718" width="211.968" x="394.229" y="318.314"/><rect height="42.5678" rx="5.3786" stroke="#f1f1f1" stroke-width=".717147" width="211.251" x="394.588" y="318.672"/></g><rect fill="#fff" fill-opacity=".060688" height="15.0601" rx="5.3786" stroke="#ccc" stroke-width=".717147" width="15.0601" x="407.394" y="331.478"/><rect fill="#edacc8" height="13.3184" rx="6.65922" width="162.895" x="428.857" y="332.247"/><g filter="url(#i)"><rect fill="#fff" height="43.285" rx="5.73718" width="211.968" x="394.229" y="370.819"/><rect height="42.5678" rx="5.3786" stroke="#f1f1f1" stroke-width=".717147" width="211.251" x="394.588" y="371.178"/></g><rect fill="#fff" fill-opacity=".060688" height="15.0601" rx="5.3786" stroke="#ccc" stroke-width=".717147" width="15.0601" x="407.394" y="383.984"/><rect fill="#ffb800" height="13.3184" rx="6.65922" width="162.895" x="428.857" y="384.752"/><path d="m360.318 364.654h19.142" stroke="#575fcf" stroke-linecap="square" stroke-linejoin="round" stroke-width="1.53674"/><path d="m394.413 338.855h-11.811c-2.122 0-3.842 1.72-3.842 3.842v46.646" stroke="#575fcf" stroke-width="1.53674"/><path d="m394.413 393.441h-11.811c-2.122 0-3.842-1.72-3.842-3.842v-21.033" stroke="#575fcf" stroke-width="1.53674"/><path clip-rule="evenodd" d="m377.991 372.663c4.668 0 8.452-3.784 8.452-8.452s-3.784-8.452-8.452-8.452-8.452 3.784-8.452 8.452 3.784 8.452 8.452 8.452z" fill="#575fcf" fill-rule="evenodd"/><path d="m382.217 364.815h-3.623-1.207-3.622v-1.207h3.622 1.207 3.623z" fill="#fff"/><path clip-rule="evenodd" d="m282.815 79.401c0-.5941.482-1.0757 1.076-1.0757s1.076.4816 1.076 1.0757-.482 1.0757-1.076 1.0757-1.076-.4816-1.076-1.0757zm0-5.7371c0-.5941.482-1.0758 1.076-1.0758s1.075.4817 1.075 1.0758-.481 1.0757-1.075 1.0757-1.076-.4816-1.076-1.0757zm1.076 1.7928c-.594 0-1.076.4816-1.076 1.0757s.482 1.0757 1.076 1.0757 1.076-.4816 1.076-1.0757-.482-1.0757-1.076-1.0757z" fill="#ccc" fill-rule="evenodd"/><path clip-rule="evenodd" d="m285.684 73.6639c0-.5941.481-1.0758 1.075-1.0758s1.076.4817 1.076 1.0758-.482 1.0757-1.076 1.0757-1.075-.4816-1.075-1.0757zm-.001 5.7371c0-.5941.482-1.0757 1.076-1.0757s1.076.4816 1.076 1.0757-.482 1.0757-1.076 1.0757-1.076-.4816-1.076-1.0757zm1.076-3.9443c-.594 0-1.076.4816-1.076 1.0757s.482 1.0757 1.076 1.0757 1.076-.4816 1.076-1.0757-.482-1.0757-1.076-1.0757z" fill="#ccc" fill-rule="evenodd"/><path d="m300.948 72.4959c-.532 0-.995.1075-1.387.3224-.384.2149-.697.5046-.94.869-.242.3551-.425.7615-.546 1.2194-.112.4579-.168.9251-.168 1.4016s.056.9437.168 1.4016c.121.4579.304.869.546 1.2334.243.3551.556.6401.94.855.392.2149.855.3224 1.387.3224.533 0 .991-.1075 1.374-.3224.392-.2149.71-.4999.953-.855.243-.3644.42-.7755.532-1.2334.122-.4579.183-.9251.183-1.4016s-.061-.9437-.183-1.4016c-.112-.4579-.289-.8643-.532-1.2194-.243-.3644-.561-.6541-.953-.869-.383-.2149-.841-.3224-1.374-.3224zm0-1.4296c.748 0 1.416.1402 2.004.4205.598.2803 1.103.6587 1.514 1.1353.411.4765.724 1.0325.939 1.6679.224.6354.337 1.3082.337 2.0183 0 .7195-.113 1.3969-.337 2.0323-.215.6354-.528 1.1914-.939 1.6679-.411.4766-.916.855-1.514 1.1353-.588.271-1.256.4065-2.004.4065-.747 0-1.42-.1355-2.018-.4065-.589-.2803-1.089-.6587-1.5-1.1353-.411-.4765-.729-1.0325-.953-1.6679-.215-.6354-.322-1.3128-.322-2.0323 0-.7101.107-1.3829.322-2.0183.224-.6354.542-1.1914.953-1.6679.411-.4766.911-.855 1.5-1.1353.598-.2803 1.271-.4205 2.018-.4205zm6.206.2383h1.598v3.7002h.028c.112-.1775.247-.3364.406-.4765.159-.1402.332-.257.519-.3504.196-.1028.397-.1776.603-.2243.214-.0561.425-.0841.63-.0841.57 0 1.065.1028 1.486.3084.43.1962.785.4718 1.065.8269.281.3457.491.7522.631 1.2194s.21.9671.21 1.4997c0 .4859-.065.9578-.196 1.4156-.122.4579-.313.8644-.575 1.2194-.252.3458-.574.6261-.967.841-.392.2056-.855.3083-1.387.3083-.243 0-.491-.0187-.743-.056-.243-.0281-.477-.0888-.701-.1822-.224-.0935-.43-.2149-.617-.3645-.177-.1495-.327-.3457-.448-.5886h-.028v.9951h-1.514zm5.578 6.3913c0-.3271-.042-.6448-.126-.9531-.084-.3084-.21-.5793-.378-.8129-.168-.243-.379-.4345-.631-.5747-.252-.1495-.542-.2242-.869-.2242-.673 0-1.182.2336-1.528.7008-.336.4672-.504 1.0885-.504 1.8641 0 .3644.042.7055.126 1.0232.093.3083.229.5746.406.7989.178.2242.388.4018.631.5326.252.1308.542.1962.869.1962.364 0 .673-.0748.925-.2243s.458-.341.617-.5746c.168-.243.285-.5139.35-.8129.075-.3084.112-.6214.112-.9391zm2.99-6.3913h1.598v1.5137h-1.598zm0 2.7611h1.598v7.863c0 .7195-.159 1.2755-.476 1.6679-.318.3925-.851.5887-1.598.5887-.159 0-.295-.0047-.407-.014-.102-.0094-.205-.0234-.308-.0421v-1.2614c.103.0187.201.0327.294.042.094.0094.178.0141.253.0141.289 0 .467-.0888.532-.2664.075-.1775.112-.4438.112-.7989zm8.315 2.9854c-.019-.2522-.075-.4952-.168-.7288-.085-.2336-.206-.4345-.365-.6027-.149-.1775-.336-.3177-.56-.4205-.215-.1121-.458-.1681-.729-.1681-.281 0-.538.0513-.771.1541-.224.0935-.421.229-.589.4065-.159.1682-.29.3691-.392.6027-.094.2336-.145.4859-.154.7568zm-3.728 1.0512c0 .2804.037.5513.112.813.084.2616.205.4905.364.6868.159.1962.36.355.603.4765.243.1121.532.1682.869.1682.467 0 .841-.0981 1.121-.2943.29-.2056.505-.5093.645-.9111h1.513c-.084.3925-.228.7429-.434 1.0512-.206.3084-.453.57-.743.7849-.29.2056-.617.3598-.981.4625-.355.1122-.729.1682-1.121.1682-.57 0-1.075-.0934-1.514-.2803s-.813-.4485-1.121-.7849c-.299-.3364-.528-.7382-.687-1.2054-.15-.4672-.224-.9811-.224-1.5417 0-.5139.079-.9998.238-1.4577.168-.4672.402-.8736.701-1.2194.308-.355.677-.6354 1.107-.8409.43-.2056.916-.3084 1.458-.3084.57 0 1.079.1215 1.527.3644.458.2336.837.5467 1.136.9391.299.3925.514.8456.644 1.3596.141.5045.178 1.0278.113 1.5697zm11.432-1.6118c-.066-.4485-.248-.7849-.547-1.0091-.289-.2336-.659-.3504-1.107-.3504-.206 0-.425.0373-.659.1121-.233.0654-.448.1962-.645.3924-.196.1869-.359.4532-.49.7989-.131.3364-.196.7803-.196 1.3316 0 .299.032.598.098.897.075.299.187.5653.336.7989.159.2336.36.4252.603.5747.243.1401.537.2102.883.2102.467 0 .85-.1448 1.149-.4345.309-.2897.5-.6961.575-1.2194h1.598c-.15.9438-.51 1.6679-1.08 2.1725-.56.4952-1.308.7428-2.242.7428-.57 0-1.075-.0934-1.514-.2803-.43-.1962-.794-.4578-1.093-.7849-.299-.3364-.528-.7335-.687-1.1913-.149-.4579-.224-.9531-.224-1.4857 0-.542.075-1.0512.224-1.5278.15-.4765.374-.8877.673-1.2334.299-.3551.668-.6307 1.107-.8269.449-.2056.972-.3084 1.57-.3084.42 0 .818.0561 1.191.1682.383.1028.72.2616 1.009.4766.299.2149.542.4858.729.8129.187.327.299.7148.337 1.1633zm2.168-2.4248h1.205v-2.1724h1.598v2.1724h1.443v1.1914h-1.443v3.8684c0 .1682.005.313.014.4345.019.1215.051.2243.098.3084.056.0841.135.1495.238.1962.103.0374.243.0561.421.0561h.336c.112-.0094.224-.0281.336-.0561v1.2334c-.177.0187-.35.0374-.518.0561-.168.0186-.341.028-.519.028-.42 0-.761-.0374-1.023-.1121-.252-.0841-.453-.2009-.603-.3504-.14-.1589-.238-.3551-.294-.5887-.047-.2336-.075-.4999-.084-.7989v-4.2749h-1.205zm5.438-2.7611h1.598v1.5137h-1.598zm0 2.7611h1.598v7.2463h-1.598zm2.624 0h1.738l1.836 5.5644h.028l1.766-5.5644h1.654l-2.593 7.2463h-1.794zm12.958 2.9854c-.018-.2522-.074-.4952-.168-.7288-.084-.2336-.205-.4345-.364-.6027-.15-.1775-.337-.3177-.561-.4205-.215-.1121-.458-.1681-.729-.1681-.28 0-.537.0513-.771.1541-.224.0935-.42.229-.588.4065-.159.1682-.29.3691-.393.6027-.093.2336-.144.4859-.154.7568zm-3.728 1.0512c0 .2804.038.5513.112.813.084.2616.206.4905.365.6868.159.1962.359.355.602.4765.243.1121.533.1682.869.1682.468 0 .841-.0981 1.122-.2943.289-.2056.504-.5093.644-.9111h1.514c-.084.3925-.229.7429-.434 1.0512-.206.3084-.454.57-.743.7849-.29.2056-.617.3598-.981.4625-.355.1122-.729.1682-1.122.1682-.57 0-1.074-.0934-1.513-.2803s-.813-.4485-1.122-.7849c-.299-.3364-.528-.7382-.686-1.2054-.15-.4672-.225-.9811-.225-1.5417 0-.5139.08-.9998.239-1.4577.168-.4672.401-.8736.7-1.2194.309-.355.678-.6354 1.108-.8409.43-.2056.915-.3084 1.457-.3084.57 0 1.08.1215 1.528.3644.458.2336.836.5467 1.135.9391.299.3925.514.8456.645 1.3596.14.5045.178 1.0278.112 1.5697zm7.746.8831c.047.4672.225.7942.533.9811s.677.2803 1.107.2803c.15 0 .318-.0093.505-.028.196-.0281.378-.0748.546-.1402.169-.0654.304-.1588.407-.2803.112-.1308.163-.299.154-.5046s-.084-.3738-.224-.5046-.323-.2336-.547-.3083c-.215-.0841-.462-.1542-.743-.2103-.28-.056-.565-.1168-.855-.1822-.299-.0654-.588-.1448-.869-.2382-.271-.0935-.518-.2196-.742-.3785-.215-.1588-.388-.3597-.519-.6027-.131-.2522-.196-.5606-.196-.925 0-.3925.093-.7195.28-.9811.196-.271.439-.4859.729-.6448.299-.1682.626-.285.981-.3504.364-.0654.71-.0981 1.037-.0981.374 0 .729.0421 1.065.1262.346.0747.654.2009.925.3784.281.1775.51.4111.687.7008.187.2803.304.6214.351 1.0232h-1.668c-.075-.3831-.253-.6401-.533-.7709-.271-.1308-.584-.1962-.939-.1962-.112 0-.248.0093-.406.028-.15.0187-.295.0561-.435.1121-.131.0467-.243.1215-.336.2243-.094.0934-.14.2196-.14.3784 0 .1962.065.3551.196.4765.14.1215.317.2243.532.3084.225.0748.477.1402.757.1962.281.0561.57.1168.869.1822.29.0654.575.1449.855.2383.281.0934.528.2196.743.3784.224.1589.402.3598.533.6027.14.243.21.542.21.897 0 .4299-.098.7943-.294 1.0933-.197.299-.454.5419-.771.7288-.309.1869-.654.3224-1.038.4065-.383.0841-.761.1261-1.135.1261-.458 0-.883-.0514-1.275-.1541-.383-.1028-.72-.257-1.009-.4626-.281-.2149-.505-.4765-.673-.7849-.159-.3177-.243-.6914-.252-1.1212z" fill="#303030"/><g filter="url(#j)"><rect fill="#fff" height="43.285" rx="5.73718" width="126.167" x="270.01" y="213.303"/><rect height="42.5678" rx="5.3786" stroke="#f1f1f1" stroke-width=".717147" width="125.45" x="270.368" y="213.661"/></g><path clip-rule="evenodd" d="m282.815 236.917c0-.594.482-1.075 1.076-1.075s1.076.481 1.076 1.075c0 .595-.482 1.076-1.076 1.076s-1.076-.481-1.076-1.076zm0-5.737c0-.594.482-1.076 1.076-1.076s1.075.482 1.075 1.076-.481 1.076-1.075 1.076-1.076-.482-1.076-1.076zm1.076 1.793c-.594 0-1.076.482-1.076 1.076s.482 1.076 1.076 1.076 1.076-.482 1.076-1.076-.482-1.076-1.076-1.076z" fill="#ccc" fill-rule="evenodd"/><path clip-rule="evenodd" d="m285.684 231.18c0-.594.481-1.076 1.075-1.076s1.076.482 1.076 1.076-.482 1.076-1.076 1.076-1.075-.482-1.075-1.076zm-.001 5.737c0-.594.482-1.075 1.076-1.075s1.076.481 1.076 1.075c0 .595-.482 1.076-1.076 1.076s-1.076-.481-1.076-1.076zm1.076-3.944c-.594 0-1.076.482-1.076 1.076s.482 1.076 1.076 1.076 1.076-.482 1.076-1.076-.482-1.076-1.076-1.076z" fill="#ccc" fill-rule="evenodd"/><path d="m296.687 230.101h7.205v1.514h-5.453v2.621h5.046v1.43h-5.046v2.929h5.551v1.514h-7.303zm8.604 2.762h1.514v1.065l.028.028c.243-.402.561-.715.953-.939.393-.234.827-.351 1.304-.351.794 0 1.42.206 1.878.617s.687 1.028.687 1.85v4.976h-1.598v-4.555c-.019-.57-.14-.981-.365-1.234-.224-.261-.574-.392-1.051-.392-.271 0-.514.051-.729.154-.214.093-.397.229-.546.406-.15.169-.266.37-.351.603-.084.234-.126.481-.126.743v4.275h-1.598zm14.748 6.867c0 1.094-.308 1.907-.925 2.439-.607.542-1.485.813-2.635.813-.364 0-.733-.037-1.107-.112-.364-.075-.701-.201-1.009-.378-.299-.178-.551-.412-.757-.701-.206-.29-.327-.645-.364-1.065h1.597c.047.224.127.406.239.546s.243.248.392.323c.159.084.332.135.519.154.187.028.383.042.588.042.645 0 1.117-.159 1.416-.477.299-.317.449-.775.449-1.373v-1.108h-.028c-.225.402-.533.715-.926.94-.383.224-.798.336-1.247.336-.579 0-1.075-.098-1.486-.294-.401-.206-.738-.482-1.009-.827-.261-.355-.453-.762-.574-1.22-.122-.458-.183-.948-.183-1.471 0-.486.075-.949.225-1.388.149-.439.364-.822.644-1.149.281-.337.622-.603 1.023-.799.412-.196.874-.295 1.388-.295.458 0 .878.099 1.262.295.383.187.677.486.883.897h.028v-.995h1.597zm-3.546-.883c.355 0 .654-.07.897-.21.253-.149.454-.341.603-.574.159-.243.271-.514.336-.813.075-.309.113-.617.113-.925 0-.309-.038-.608-.113-.897-.074-.29-.191-.547-.35-.771-.149-.225-.35-.402-.603-.533-.243-.131-.537-.196-.883-.196-.355 0-.654.075-.897.224-.243.15-.439.346-.588.589-.15.233-.257.504-.323.813-.065.299-.098.598-.098.897s.038.593.112.883c.075.28.187.532.337.757.159.224.355.406.588.546.243.14.533.21.869.21zm5.197-8.746h1.598v1.514h-1.598zm0 2.762h1.598v7.246h-1.598zm3.339 0h1.514v1.065l.028.028c.243-.402.56-.715.953-.939.392-.234.827-.351 1.303-.351.794 0 1.42.206 1.878.617s.687 1.028.687 1.85v4.976h-1.598v-4.555c-.018-.57-.14-.981-.364-1.234-.224-.261-.575-.392-1.051-.392-.271 0-.514.051-.729.154-.215.093-.397.229-.547.406-.149.169-.266.37-.35.603-.084.234-.126.481-.126.743v4.275h-1.598zm13.024 2.985c-.019-.252-.075-.495-.168-.729-.085-.233-.206-.434-.365-.602-.149-.178-.336-.318-.56-.421-.215-.112-.458-.168-.729-.168-.281 0-.538.051-.771.154-.224.093-.421.229-.589.406-.159.169-.29.37-.392.603-.094.234-.145.486-.154.757zm-3.728 1.051c0 .281.037.552.112.813.084.262.205.491.364.687s.36.355.603.476c.243.113.532.169.869.169.467 0 .841-.098 1.121-.295.29-.205.505-.509.645-.911h1.513c-.084.393-.228.743-.434 1.051-.206.309-.453.57-.743.785-.29.206-.617.36-.981.463-.355.112-.729.168-1.121.168-.57 0-1.075-.093-1.514-.28s-.813-.449-1.121-.785c-.299-.336-.528-.738-.687-1.205-.15-.468-.224-.982-.224-1.542 0-.514.079-1 .238-1.458.168-.467.402-.874.701-1.219.308-.355.677-.636 1.107-.841.43-.206.916-.309 1.458-.309.57 0 1.079.122 1.527.365.458.233.837.546 1.136.939.299.392.514.846.644 1.359.141.505.178 1.028.113 1.57zm11.516-1.051c-.019-.252-.075-.495-.168-.729-.084-.233-.206-.434-.365-.602-.149-.178-.336-.318-.56-.421-.215-.112-.458-.168-.729-.168-.28 0-.537.051-.771.154-.224.093-.42.229-.589.406-.159.169-.289.37-.392.603-.094.234-.145.486-.154.757zm-3.728 1.051c0 .281.037.552.112.813.084.262.205.491.364.687s.36.355.603.476c.243.113.533.169.869.169.467 0 .841-.098 1.121-.295.29-.205.505-.509.645-.911h1.514c-.084.393-.229.743-.435 1.051-.205.309-.453.57-.743.785-.289.206-.616.36-.981.463-.355.112-.729.168-1.121.168-.57 0-1.075-.093-1.514-.28s-.813-.449-1.121-.785c-.299-.336-.528-.738-.687-1.205-.149-.468-.224-.982-.224-1.542 0-.514.079-1 .238-1.458.168-.467.402-.874.701-1.219.308-.355.677-.636 1.107-.841.43-.206.916-.309 1.458-.309.57 0 1.079.122 1.528.365.457.233.836.546 1.135.939.299.392.514.846.645 1.359.14.505.177 1.028.112 1.57zm6.54-4.036h1.5v1.401h.028c.047-.196.136-.388.267-.574.14-.187.303-.356.49-.505.196-.159.411-.285.645-.378.233-.094.472-.141.715-.141.187 0 .313.005.378.014.075.01.15.019.224.028v1.542c-.112-.018-.229-.033-.35-.042-.112-.019-.224-.028-.336-.028-.271 0-.528.056-.771.168-.234.103-.44.262-.617.477-.178.205-.318.462-.421.771-.102.308-.154.663-.154 1.065v3.448h-1.598zm4.97-2.762h1.598v1.514h-1.598zm0 2.762h1.598v7.246h-1.598zm3.339 0h1.514v1.065l.028.028c.242-.402.56-.715.953-.939.392-.234.827-.351 1.303-.351.794 0 1.42.206 1.878.617s.687 1.028.687 1.85v4.976h-1.598v-4.555c-.018-.57-.14-.981-.364-1.234-.224-.261-.575-.392-1.051-.392-.271 0-.514.051-.729.154-.215.093-.397.229-.547.406-.149.169-.266.37-.35.603-.084.234-.126.481-.126.743v4.275h-1.598zm14.748 6.867c0 1.094-.309 1.907-.925 2.439-.608.542-1.486.813-2.635.813-.365 0-.734-.037-1.108-.112-.364-.075-.7-.201-1.009-.378-.299-.178-.551-.412-.757-.701-.205-.29-.327-.645-.364-1.065h1.598c.046.224.126.406.238.546s.243.248.392.323c.159.084.332.135.519.154.187.028.383.042.589.042.644 0 1.116-.159 1.415-.477.299-.317.449-.775.449-1.373v-1.108h-.028c-.224.402-.533.715-.925.94-.383.224-.799.336-1.248.336-.579 0-1.074-.098-1.485-.294-.402-.206-.739-.482-1.01-.827-.261-.355-.453-.762-.574-1.22-.122-.458-.182-.948-.182-1.471 0-.486.074-.949.224-1.388.149-.439.364-.822.645-1.149.28-.337.621-.603 1.023-.799.411-.196.873-.295 1.387-.295.458 0 .879.099 1.262.295.383.187.677.486.883.897h.028v-.995h1.598zm-3.546-.883c.355 0 .654-.07.897-.21.252-.149.453-.341.602-.574.159-.243.271-.514.337-.813.074-.309.112-.617.112-.925 0-.309-.038-.608-.112-.897-.075-.29-.192-.547-.351-.771-.149-.225-.35-.402-.602-.533-.243-.131-.538-.196-.883-.196-.355 0-.654.075-.897.224-.243.15-.44.346-.589.589-.15.233-.257.504-.322.813-.066.299-.099.598-.099.897s.038.593.113.883c.074.28.186.532.336.757.159.224.355.406.589.546.243.14.532.21.869.21z" fill="#303030"/><g filter="url(#k)"><rect fill="#fff" height="43.285" rx="5.73718" width="90.3093" x="270.01" y="341.365"/><rect height="42.5678" rx="5.3786" stroke="#f1f1f1" stroke-width=".717147" width="89.5922" x="270.368" y="341.723"/></g><path clip-rule="evenodd" d="m282.815 364.979c0-.594.482-1.075 1.076-1.075s1.076.481 1.076 1.075c0 .595-.482 1.076-1.076 1.076s-1.076-.481-1.076-1.076zm0-5.737c0-.594.482-1.075 1.076-1.075s1.075.481 1.075 1.075-.481 1.076-1.075 1.076-1.076-.482-1.076-1.076zm1.076 1.793c-.594 0-1.076.482-1.076 1.076s.482 1.076 1.076 1.076 1.076-.482 1.076-1.076-.482-1.076-1.076-1.076z" fill="#ccc" fill-rule="evenodd"/><path clip-rule="evenodd" d="m285.684 359.242c0-.594.481-1.075 1.075-1.075s1.076.481 1.076 1.075-.482 1.076-1.076 1.076-1.075-.482-1.075-1.076zm-.001 5.737c0-.594.482-1.075 1.076-1.075s1.076.481 1.076 1.075c0 .595-.482 1.076-1.076 1.076s-1.076-.481-1.076-1.076zm1.076-3.944c-.594 0-1.076.482-1.076 1.076s.482 1.076 1.076 1.076 1.076-.482 1.076-1.076-.482-1.076-1.076-1.076z" fill="#ccc" fill-rule="evenodd"/><path d="m296.687 358.163h4.149c.766 0 1.43.131 1.99.393.561.262 1.019.621 1.374 1.079.355.449.617.977.785 1.584.177.607.266 1.257.266 1.948 0 .692-.089 1.341-.266 1.948-.168.608-.43 1.14-.785 1.598-.355.449-.813.804-1.374 1.065-.56.262-1.224.393-1.99.393h-4.149zm1.752 8.578h1.724c.682 0 1.238-.089 1.668-.266.439-.187.78-.439 1.023-.757.253-.327.421-.705.505-1.135.093-.439.14-.911.14-1.416 0-.504-.047-.972-.14-1.401-.084-.44-.252-.818-.505-1.136-.243-.327-.584-.579-1.023-.757-.43-.186-.986-.28-1.668-.28h-1.724zm13.115-2.831c-.019-.252-.075-.495-.168-.729-.085-.233-.206-.434-.365-.602-.149-.178-.336-.318-.56-.421-.215-.112-.458-.168-.729-.168-.281 0-.538.051-.771.154-.224.093-.421.229-.589.406-.159.169-.29.37-.392.603-.094.234-.145.486-.154.757zm-3.728 1.051c0 .281.037.552.112.813.084.262.205.491.364.687s.36.355.603.476c.243.113.532.169.869.169.467 0 .841-.098 1.121-.295.29-.205.505-.509.645-.911h1.513c-.084.393-.228.743-.434 1.052-.206.308-.453.569-.743.784-.29.206-.617.36-.981.463-.355.112-.729.168-1.121.168-.57 0-1.075-.093-1.514-.28s-.813-.449-1.121-.785c-.299-.336-.528-.738-.687-1.205-.15-.468-.224-.982-.224-1.542 0-.514.079-1 .238-1.458.168-.467.402-.874.701-1.219.308-.355.677-.636 1.107-.841.43-.206.916-.309 1.458-.309.57 0 1.079.122 1.527.365.458.233.837.546 1.136.939.299.392.514.846.644 1.359.141.505.178 1.028.113 1.57zm7.746.883c.046.467.224.794.532.981.309.187.678.281 1.108.281.149 0 .317-.01.504-.028.196-.028.379-.075.547-.141.168-.065.303-.158.406-.28.112-.131.164-.299.154-.504-.009-.206-.084-.374-.224-.505s-.322-.234-.547-.308c-.214-.084-.462-.155-.742-.211-.281-.056-.566-.116-.855-.182-.299-.065-.589-.145-.869-.238-.271-.093-.519-.22-.743-.378-.215-.159-.388-.36-.519-.603-.131-.252-.196-.561-.196-.925 0-.393.093-.72.28-.981.197-.271.439-.486.729-.645.299-.168.626-.285.981-.35.365-.066.71-.099 1.037-.099.374 0 .729.042 1.066.127.345.074.654.2.925.378.28.178.509.411.687.701.186.28.303.621.35 1.023h-1.668c-.075-.383-.252-.64-.533-.771-.271-.131-.584-.196-.939-.196-.112 0-.247.009-.406.028-.15.019-.294.056-.435.112-.13.047-.243.121-.336.224-.093.094-.14.22-.14.379 0 .196.065.355.196.476.14.122.318.224.533.309.224.074.476.14.757.196.28.056.57.117.869.182.289.065.574.145.854.238.281.094.528.22.743.379.225.159.402.359.533.602.14.243.21.542.21.897 0 .43-.098.795-.294 1.094s-.453.542-.771.729c-.308.186-.654.322-1.037.406s-.762.126-1.136.126c-.457 0-.883-.051-1.275-.154-.383-.103-.719-.257-1.009-.463-.28-.214-.505-.476-.673-.784-.159-.318-.243-.692-.252-1.122zm6.104-7.681h1.598v1.514h-1.598zm0 2.762h1.598v7.246h-1.598zm10.039 6.867c0 1.094-.309 1.907-.925 2.439-.608.542-1.486.813-2.635.813-.365 0-.734-.037-1.108-.112-.364-.075-.7-.201-1.009-.378-.299-.178-.551-.412-.757-.701-.205-.29-.327-.645-.364-1.065h1.598c.047.224.126.406.238.546s.243.248.393.323c.158.084.331.135.518.154.187.028.383.042.589.042.645 0 1.116-.159 1.415-.477.299-.317.449-.775.449-1.373v-1.108h-.028c-.224.402-.533.715-.925.94-.383.224-.799.336-1.248.336-.579 0-1.074-.098-1.485-.294-.402-.206-.738-.482-1.009-.827-.262-.355-.454-.762-.575-1.22-.122-.458-.182-.948-.182-1.471 0-.486.075-.949.224-1.388.15-.439.364-.822.645-1.149.28-.337.621-.603 1.023-.799.411-.196.874-.295 1.388-.295.457 0 .878.099 1.261.295.383.187.677.486.883.897h.028v-.995h1.598zm-3.546-.883c.355 0 .654-.07.897-.21.252-.149.453-.341.602-.574.159-.243.271-.514.337-.813.075-.309.112-.617.112-.925 0-.309-.037-.608-.112-.897-.075-.29-.192-.547-.351-.771-.149-.225-.35-.402-.602-.533-.243-.131-.538-.196-.883-.196-.355 0-.654.075-.897.224-.243.15-.439.346-.589.589-.149.233-.257.504-.322.813-.066.299-.098.598-.098.897s.037.593.112.883c.074.28.187.532.336.757.159.224.355.406.589.546.243.14.532.21.869.21zm5.154-5.984h1.514v1.065l.028.028c.243-.402.561-.715.953-.939.393-.234.827-.351 1.304-.351.794 0 1.42.206 1.878.617s.687 1.028.687 1.85v4.976h-1.598v-4.555c-.019-.57-.14-.981-.365-1.234-.224-.261-.574-.392-1.051-.392-.271 0-.514.051-.729.154-.214.093-.397.229-.546.406-.15.169-.266.37-.351.603-.084.234-.126.481-.126.743v4.275h-1.598z" fill="#303030"/><path clip-rule="evenodd" d="m24.9238 246.395c0-1.189.9633-2.152 2.1515-2.152h65.2604c1.1882 0 2.1514.963 2.1514 2.152 0 1.188-.9632 2.151-2.1514 2.151h-65.2604c-1.1882 0-2.1515-.963-2.1515-2.151z" fill="#575fcf" fill-rule="evenodd" opacity=".133315"/><rect fill="#575fcf" height="4.30288" rx="2.15144" width="30.1202" x="24.9238" y="244.243"/><path d="m25.081 220.698h5.3222c.8561 0 1.5544.124 2.0951.372s.9575.557 1.2503.929c.2929.372.49.777.5914 1.217.1126.439.1689.845.1689 1.216 0 .372-.0563.777-.1689 1.217-.1014.428-.2985.828-.5914 1.199-.2928.372-.7096.682-1.2503.93-.5407.236-1.239.354-2.0951.354h-3.2102v4.63h-2.112zm2.112 5.711h3.0919c.2366 0 .4788-.034.7266-.101.2478-.068.4731-.175.6758-.321.214-.158.383-.361.5069-.609.1352-.259.2027-.58.2027-.963 0-.394-.0563-.721-.1689-.98-.1127-.259-.2647-.461-.4562-.608-.1915-.158-.4111-.265-.659-.321-.2478-.056-.5125-.084-.7941-.084h-3.1257zm8.8871-2.382h1.8079v1.689h.0338c.0563-.236.1633-.467.321-.692.169-.226.3661-.428.5914-.609.2365-.191.4956-.343.7772-.456.2816-.112.5688-.169.8617-.169.2253 0 .3773.006.4562.017.0901.011.1802.023.2703.034v1.858c-.1351-.022-.2759-.039-.4224-.05-.1351-.023-.2703-.034-.4055-.034-.3266 0-.6364.068-.9293.203-.2816.124-.5294.315-.7434.574-.214.248-.383.558-.5069.929-.1239.372-.1858.8-.1858 1.285v4.156h-1.9262zm9.6474 8.972c-.6984 0-1.3235-.113-1.8755-.338-.5406-.237-1.0025-.558-1.3854-.963-.3718-.406-.659-.89-.8617-1.454-.1915-.563-.2873-1.182-.2873-1.858 0-.665.0958-1.279.2873-1.842.2027-.563.4899-1.047.8617-1.453.3829-.405.8448-.721 1.3854-.946.552-.237 1.1771-.355 1.8755-.355s1.3179.118 1.8585.355c.552.225 1.0138.541 1.3855.946.383.406.6702.89.8617 1.453.2028.563.3041 1.177.3041 1.842 0 .676-.1013 1.295-.3041 1.858-.1915.564-.4787 1.048-.8617 1.454-.3717.405-.8335.726-1.3855.963-.5406.225-1.1601.338-1.8585.338zm0-1.521c.428 0 .7997-.09 1.1151-.27.3154-.181.5745-.417.7772-.71.2028-.293.3492-.62.4393-.98.1014-.372.1521-.749.1521-1.132 0-.372-.0507-.744-.1521-1.115-.0901-.372-.2365-.699-.4393-.98-.2027-.293-.4618-.53-.7772-.71s-.6871-.27-1.1151-.27-.7998.09-1.1151.27c-.3154.18-.5745.417-.7773.71-.2027.281-.3548.608-.4562.98-.0901.371-.1351.743-.1351 1.115 0 .383.045.76.1351 1.132.1014.36.2535.687.4562.98.2028.293.4619.529.7773.71.3153.18.6871.27 1.1151.27zm14.2395 1.284h-1.8248v-1.183h-.0338c-.259.507-.6364.873-1.132 1.098-.4956.214-1.0194.322-1.5713.322-.6871 0-1.2898-.119-1.8079-.355-.5069-.248-.9293-.58-1.2672-.997s-.5914-.907-.7603-1.47c-.169-.575-.2535-1.188-.2535-1.842 0-.788.107-1.47.3211-2.044.214-.575.4956-1.048.8448-1.419.3604-.372.7659-.643 1.2165-.811.4618-.181.9293-.271 1.4023-.271.2704 0 .5463.028.8279.085.2816.045.552.124.8111.236.259.113.4956.259.7096.44.2253.168.4111.371.5576.608h.0337v-4.461h1.9262zm-6.7246-4.275c0 .372.045.738.1351 1.099.1014.36.2479.681.4393.963.2028.281.4562.506.7604.675.3041.169.6645.254 1.0813.254.428 0 .7941-.09 1.0982-.27.3154-.181.5689-.417.7604-.71.2027-.293.3492-.62.4393-.98.1013-.372.152-.749.152-1.132 0-.969-.2196-1.723-.6589-2.264-.428-.541-1.0138-.811-1.7572-.811-.4506 0-.8335.096-1.1489.287-.3042.18-.5576.422-.7603.727-.1915.292-.3323.63-.4224 1.013-.0789.372-.1183.755-.1183 1.149zm16.496 4.275h-1.8923v-1.217h-.0338c-.2366.44-.5914.795-1.0645 1.065-.4618.259-.9349.389-1.4192.389-1.149 0-1.9825-.282-2.5006-.845-.5069-.575-.7604-1.436-.7604-2.585v-5.542h1.9262v5.356c0 .766.1464 1.306.4393 1.622.2928.315.704.473 1.2334.473.4055 0 .7434-.062 1.0137-.186.2704-.124.49-.287.659-.49.1689-.214.2872-.467.3548-.76.0789-.293.1183-.609.1183-.946v-5.069h1.9261zm7.9279-5.812c-.0788-.541-.2985-.946-.6589-1.217-.3492-.281-.7941-.422-1.3348-.422-.2478 0-.5125.045-.7941.135-.2816.079-.5407.237-.7772.473-.2366.225-.4337.546-.5914.963-.1577.406-.2365.941-.2365 1.605 0 .361.0394.721.1183 1.082.0901.36.2252.681.4055.963.1914.281.4336.512.7265.692.2928.169.6477.254 1.0644.254.5632 0 1.0251-.175 1.3855-.524.3717-.349.6026-.839.6927-1.47h1.9262c-.1802 1.138-.6139 2.011-1.301 2.619-.6758.597-1.577.896-2.7034.896-.6871 0-1.2953-.113-1.8247-.338-.5182-.237-.9575-.552-1.3179-.947-.3605-.405-.6364-.884-.8279-1.436-.1803-.552-.2704-1.149-.2704-1.791 0-.653.0901-1.267.2704-1.841.1802-.575.4505-1.07.811-1.487.3604-.428.8054-.761 1.3348-.997.5406-.248 1.1714-.372 1.8923-.372.5069 0 .9856.068 1.4362.203.4618.124.8673.315 1.2165.574.3604.259.6533.586.8786.98.2253.395.3604.862.4055 1.403zm2.6132-2.923h1.4531v-2.619h1.9261v2.619h1.7403v1.436h-1.7403v4.663c0 .203.0057.378.0169.524.0226.146.062.27.1183.372.0676.101.1633.18.2872.236.1239.045.2929.068.5069.068h.4055c.1352-.011.2704-.034.4055-.068v1.487c-.214.023-.4224.045-.6251.068-.2028.022-.4112.033-.6252.033-.5069 0-.918-.045-1.2334-.135-.3041-.101-.5463-.242-.7265-.422-.169-.192-.2872-.428-.3548-.71-.0563-.281-.0901-.602-.1014-.963v-5.153h-1.4531zm12.8634 4.714c0 .462.0789.856.2366 1.182.1577.327.3773.597.6589.811.2816.203.6027.355.9631.457.3717.09.7716.135 1.1996.135.4618 0 .8561-.051 1.1827-.152.3267-.113.5914-.254.7941-.423.2028-.169.3492-.36.4393-.574.0902-.225.1352-.451.1352-.676 0-.462-.107-.8-.321-1.014-.2028-.225-.428-.383-.6759-.473-.428-.158-.9292-.304-1.5037-.439-.5632-.147-1.2616-.332-2.0951-.558-.5181-.135-.9518-.309-1.301-.523-.3379-.226-.6082-.474-.811-.744s-.3492-.557-.4393-.862c-.0788-.304-.1183-.613-.1183-.929 0-.608.1239-1.132.3717-1.571.2591-.451.597-.822 1.0138-1.115s.8899-.507 1.4193-.642c.5294-.147 1.0644-.22 1.6051-.22.6308 0 1.2221.084 1.7741.253.5632.158 1.0532.4 1.4699.727.4281.327.766.732 1.014 1.216.248.474.371 1.025.371 1.656h-2.1115c-.0563-.777-.321-1.323-.7941-1.639-.4731-.326-1.0757-.49-1.8079-.49-.2478 0-.5012.029-.7603.085-.2591.045-.4956.129-.7096.253-.2141.113-.3943.271-.5407.473-.1352.203-.2028.457-.2028.761 0 .428.1296.766.3886 1.013.2704.237.6196.417 1.0476.541.045.011.2196.062.5238.152.3154.079.6645.169 1.0475.271.383.101.7547.202 1.1152.304.3717.09.6364.157.7941.202.3942.124.7378.293 1.0306.507.2929.214.5355.462.7265.744.203.27.349.563.439.878.102.316.152.631.152.946 0 .676-.14 1.256-.422 1.741-.27.473-.6308.861-1.0813 1.166-.4506.304-.9631.523-1.5376.659-.5744.146-1.1602.219-1.7572.219-.6871 0-1.3347-.084-1.943-.253-.6082-.169-1.1377-.428-1.5882-.777-.4506-.35-.811-.795-1.0814-1.335-.2703-.552-.4111-1.2-.4224-1.943zm9.3511-4.714h1.825v1.182h.033c.271-.506.648-.867 1.132-1.081.485-.225 1.009-.338 1.572-.338.687 0 1.284.124 1.791.372.518.236.946.569 1.284.997.338.417.591.907.76 1.47s.254 1.166.254 1.808c0 .585-.079 1.154-.237 1.706-.146.552-.377 1.042-.693 1.47-.304.417-.692.755-1.166 1.014-.473.248-1.03.372-1.672.372-.282 0-.563-.029-.845-.085-.282-.045-.552-.124-.811-.237-.259-.112-.501-.253-.727-.422-.214-.18-.394-.389-.54-.625h-.034v4.359h-1.926zm6.724 4.376c0-.394-.05-.777-.152-1.149-.101-.372-.253-.699-.456-.98-.203-.293-.456-.524-.76-.693-.304-.18-.653-.27-1.048-.27-.811 0-1.425.281-1.841.845-.406.563-.609 1.312-.609 2.247 0 .439.051.85.152 1.233.113.372.276.693.49.963.214.271.468.485.761.642.304.158.653.237 1.047.237.44 0 .811-.09 1.115-.27.305-.181.552-.412.744-.693.203-.293.343-.62.422-.98.09-.372.135-.749.135-1.132zm9.552-.777c-.022-.305-.09-.597-.203-.879-.101-.282-.247-.524-.439-.727-.18-.214-.405-.383-.676-.506-.259-.136-.552-.203-.878-.203-.338 0-.648.062-.93.186-.27.112-.506.276-.709.49-.192.202-.349.445-.473.726-.113.282-.175.586-.186.913zm-4.494 1.267c0 .338.045.664.135.98.101.315.248.591.439.828.192.236.434.428.727.574.293.135.642.203 1.047.203.564 0 1.014-.118 1.352-.355.349-.248.608-.614.777-1.098h1.825c-.101.473-.276.895-.524 1.267-.247.372-.546.687-.895.946-.349.248-.744.434-1.183.558-.428.135-.878.203-1.352.203-.687 0-1.295-.113-1.824-.338-.53-.226-.98-.541-1.352-.947-.36-.405-.636-.889-.828-1.453-.18-.563-.27-1.182-.27-1.858 0-.62.095-1.205.287-1.757.203-.564.484-1.054.845-1.47.371-.428.816-.766 1.335-1.014.518-.248 1.103-.372 1.757-.372.687 0 1.301.147 1.841.439.552.282 1.009.659 1.369 1.133.36.473.619 1.019.777 1.638.169.609.214 1.239.135 1.893zm13.781-1.943c-.079-.541-.298-.946-.659-1.217-.349-.281-.794-.422-1.334-.422-.248 0-.513.045-.795.135-.281.079-.54.237-.777.473-.236.225-.433.546-.591.963-.158.406-.237.941-.237 1.605 0 .361.04.721.119 1.082.09.36.225.681.405.963.192.281.434.512.727.692.293.169.647.254 1.064.254.563 0 1.025-.175 1.386-.524.371-.349.602-.839.692-1.47h1.926c-.18 1.138-.613 2.011-1.301 2.619-.675.597-1.576.896-2.703.896-.687 0-1.295-.113-1.825-.338-.518-.237-.957-.552-1.318-.947-.36-.405-.636-.884-.827-1.436-.181-.552-.271-1.149-.271-1.791 0-.653.09-1.267.271-1.841.18-.575.45-1.07.811-1.487.36-.428.805-.761 1.334-.997.541-.248 1.172-.372 1.893-.372.507 0 .985.068 1.436.203.462.124.867.315 1.216.574.361.259.654.586.879.98.225.395.36.862.405 1.403z" fill="#303030"/><path d="m253.898 235.398h15.461" stroke="#575fcf" stroke-linecap="square" stroke-linejoin="round" stroke-width="1.53674"/><path d="m235.458 235.398h19.142" stroke="#575fcf" stroke-linecap="square" stroke-linejoin="round" stroke-width="1.53674"/><path d="m269.552 77.6956h-11.812c-2.122 0-3.842 1.72-3.842 3.8418v150.3766" stroke="#575fcf" stroke-width="1.53674"/><path d="m269.552 362.793h-11.812c-2.122 0-3.842-1.72-3.842-3.842v-136.289" stroke="#575fcf" stroke-width="1.53674"/><path clip-rule="evenodd" d="m253.131 243.408c4.668 0 8.452-3.784 8.452-8.452s-3.784-8.452-8.452-8.452-8.452 3.784-8.452 8.452 3.784 8.452 8.452 8.452z" fill="#575fcf" fill-rule="evenodd"/><path d="m257.356 235.559h-3.622-1.207-3.623v-1.207h3.623 1.207 3.622z" fill="#fff"/></svg>